<?xml version="1.0" encoding="UTF-8" standalone="no"?><svg xmlns="http://www.w3.org/2000/svg" xmlns:xlink="http://www.w3.org/1999/xlink" clip-rule="evenodd" stroke-miterlimit="10" viewBox="0 0 1024 768"><desc>SVG generated by Keynote</desc><defs></defs><g transform="matrix(1.00, 0.00, -0.00, -1.00, 0.0, 768.0)"><g><clipPath id="clip0x6080008b33e0"><path d="M 0.0 768.0 L 1024.0 768.0 L 1024.0 0.0 L 0.0 0.0 Z M 0.0 768.0 "></path></clipPath><g clip-path="url(#clip0x6080008b33e0)"><image xlink:href="../../8D3ED16D-0AC6-4687-B857-35986CF62247/assets/36A78218EC91664F9E8CE4EC9C0D9D0B.png" width="1024.00" height="768.00" transform="matrix(1.00, 0.00, -0.00, -1.00, 0.0, 768.0)"></image></g></g><text xml:space="preserve" font-family="Futura-CondensedMedium,Futura" font-size="90.0" fill="#FEFFFF" transform="matrix(1.00, 0.00, -0.00, -1.00, 104.0, 633.3)">R</text><text xml:space="preserve" font-family="Futura-CondensedMedium,Futura" font-size="90.0" fill="#FEFFFF" transform="matrix(1.00, 0.00, -0.00, -1.00, 140.7, 633.3)">e</text><text xml:space="preserve" font-family="Futura-CondensedMedium,Futura" font-size="90.0" fill="#FEFFFF" transform="matrix(1.00, 0.00, -0.00, -1.00, 173.8, 633.3)">s</text><text xml:space="preserve" font-family="Futura-CondensedMedium,Futura" font-size="90.0" fill="#FEFFFF" transform="matrix(1.00, 0.00, -0.00, -1.00, 200.3, 633.3)">u</text><text xml:space="preserve" font-family="Futura-CondensedMedium,Futura" font-size="90.0" fill="#FEFFFF" transform="matrix(1.00, 0.00, -0.00, -1.00, 236.9, 633.3)">l</text><text xml:space="preserve" font-family="Futura-CondensedMedium,Futura" font-size="90.0" fill="#FEFFFF" transform="matrix(1.00, 0.00, -0.00, -1.00, 254.8, 633.3)">t</text><text xml:space="preserve" font-family="Futura-CondensedMedium,Futura" font-size="90.0" fill="#FEFFFF" transform="matrix(1.00, 0.00, -0.00, -1.00, 274.8, 633.3)">s</text><text xml:space="preserve" font-family="Futura-CondensedMedium,Futura" font-size="90.0" fill="#FEFFFF" transform="matrix(1.00, 0.00, -0.00, -1.00, 301.3, 633.3)"> </text><text xml:space="preserve" font-family="Futura-CondensedMedium,Futura" font-size="90.0" fill="#FEFFFF" transform="matrix(1.00, 0.00, -0.00, -1.00, 319.9, 633.3)">-</text><text xml:space="preserve" font-family="Futura-CondensedMedium,Futura" font-size="90.0" fill="#FEFFFF" transform="matrix(1.00, 0.00, -0.00, -1.00, 335.9, 633.3)"> </text><text xml:space="preserve" font-family="Futura-CondensedMedium,Futura" font-size="90.0" fill="#FEFFFF" transform="matrix(1.00, 0.00, -0.00, -1.00, 354.5, 633.3)">S</text><text xml:space="preserve" font-family="Futura-CondensedMedium,Futura" font-size="90.0" fill="#FEFFFF" transform="matrix(1.00, 0.00, -0.00, -1.00, 388.1, 633.3)">c</text><text xml:space="preserve" font-family="Futura-CondensedMedium,Futura" font-size="90.0" fill="#FEFFFF" transform="matrix(1.00, 0.00, -0.00, -1.00, 413.8, 633.3)">r</text><text xml:space="preserve" font-family="Futura-CondensedMedium,Futura" font-size="90.0" fill="#FEFFFF" transform="matrix(1.00, 0.00, -0.00, -1.00, 438.1, 633.3)">e</text><text xml:space="preserve" font-family="Futura-CondensedMedium,Futura" font-size="90.0" fill="#FEFFFF" transform="matrix(1.00, 0.00, -0.00, -1.00, 471.2, 633.3)">e</text><text xml:space="preserve" font-family="Futura-CondensedMedium,Futura" font-size="90.0" fill="#FEFFFF" transform="matrix(1.00, 0.00, -0.00, -1.00, 504.4, 633.3)">n</text><text xml:space="preserve" font-family="Futura-CondensedMedium,Futura" font-size="90.0" fill="#FEFFFF" transform="matrix(1.00, 0.00, -0.00, -1.00, 540.8, 633.3)"> </text><text xml:space="preserve" font-family="Futura-CondensedMedium,Futura" font-size="90.0" fill="#FEFFFF" transform="matrix(1.00, 0.00, -0.00, -1.00, 559.4, 633.3)">s</text><text xml:space="preserve" font-family="Futura-CondensedMedium,Futura" font-size="90.0" fill="#FEFFFF" transform="matrix(1.00, 0.00, -0.00, -1.00, 585.9, 633.3)">h</text><text xml:space="preserve" font-family="Futura-CondensedMedium,Futura" font-size="90.0" fill="#FEFFFF" transform="matrix(1.00, 0.00, -0.00, -1.00, 622.3, 633.3)">o</text><text xml:space="preserve" font-family="Futura-CondensedMedium,Futura" font-size="90.0" fill="#FEFFFF" transform="matrix(1.00, 0.00, -0.00, -1.00, 656.9, 633.3)">t</text><text xml:space="preserve" font-family="Futura-CondensedMedium,Futura" font-size="90.0" fill="#FEFFFF" transform="matrix(1.00, 0.00, -0.00, -1.00, 676.9, 633.3)">s</text><text xml:space="preserve" font-family="Futura-CondensedMedium,Futura" font-size="36.0" fill="#3A5252" transform="matrix(1.00, 0.00, -0.00, -1.00, 252.5, 150.9)">F</text><text xml:space="preserve" font-family="Futura-CondensedMedium,Futura" font-size="36.0" fill="#3A5252" transform="matrix(1.00, 0.00, -0.00, -1.00, 265.5, 150.9)">i</text><text xml:space="preserve" font-family="Futura-CondensedMedium,Futura" font-size="36.0" fill="#3A5252" transform="matrix(1.00, 0.00, -0.00, -1.00, 272.6, 150.9)">g</text><text xml:space="preserve" font-family="Futura-CondensedMedium,Futura" font-size="36.0" fill="#3A5252" transform="matrix(1.00, 0.00, -0.00, -1.00, 286.8, 150.9)">u</text><text xml:space="preserve" font-family="Futura-CondensedMedium,Futura" font-size="36.0" fill="#3A5252" transform="matrix(1.00, 0.00, -0.00, -1.00, 301.5, 150.9)">r</text><text xml:space="preserve" font-family="Futura-CondensedMedium,Futura" font-size="36.0" fill="#3A5252" transform="matrix(1.00, 0.00, -0.00, -1.00, 311.2, 150.9)">e</text><text xml:space="preserve" font-family="Futura-CondensedMedium,Futura" font-size="36.0" fill="#3A5252" transform="matrix(1.00, 0.00, -0.00, -1.00, 324.4, 150.9)"> </text><text xml:space="preserve" font-family="Futura-CondensedMedium,Futura" font-size="36.0" fill="#3A5252" transform="matrix(1.00, 0.00, -0.00, -1.00, 331.9, 150.9)">3</text><text xml:space="preserve" font-family="Futura-CondensedMedium,Futura" font-size="36.0" fill="#3A5252" transform="matrix(1.00, 0.00, -0.00, -1.00, 346.8, 150.9)">.</text><text xml:space="preserve" font-family="Futura-CondensedMedium,Futura" font-size="36.0" fill="#3A5252" transform="matrix(1.00, 0.00, -0.00, -1.00, 354.3, 150.9)"> </text><text xml:space="preserve" font-family="Futura-CondensedMedium,Futura" font-size="36.0" fill="#3A5252" transform="matrix(1.00, 0.00, -0.00, -1.00, 361.7, 150.9)">A</text><text xml:space="preserve" font-family="Futura-CondensedMedium,Futura" font-size="36.0" fill="#3A5252" transform="matrix(1.00, 0.00, -0.00, -1.00, 376.4, 150.9)"> </text><text xml:space="preserve" font-family="Futura-CondensedMedium,Futura" font-size="36.0" fill="#3A5252" transform="matrix(1.00, 0.00, -0.00, -1.00, 383.8, 150.9)">p</text><text xml:space="preserve" font-family="Futura-CondensedMedium,Futura" font-size="36.0" fill="#3A5252" transform="matrix(1.00, 0.00, -0.00, -1.00, 398.0, 150.9)">o</text><text xml:space="preserve" font-family="Futura-CondensedMedium,Futura" font-size="36.0" fill="#3A5252" transform="matrix(1.00, 0.00, -0.00, -1.00, 411.9, 150.9)">l</text><text xml:space="preserve" font-family="Futura-CondensedMedium,Futura" font-size="36.0" fill="#3A5252" transform="matrix(1.00, 0.00, -0.00, -1.00, 419.1, 150.9)">l</text><text xml:space="preserve" font-family="Futura-CondensedMedium,Futura" font-size="36.0" fill="#3A5252" transform="matrix(1.00, 0.00, -0.00, -1.00, 426.3, 150.9)"> </text><text xml:space="preserve" font-family="Futura-CondensedMedium,Futura" font-size="36.0" fill="#3A5252" transform="matrix(1.00, 0.00, -0.00, -1.00, 433.7, 150.9)">e</text><text xml:space="preserve" font-family="Futura-CondensedMedium,Futura" font-size="36.0" fill="#3A5252" transform="matrix(1.00, 0.00, -0.00, -1.00, 447.0, 150.9)">m</text><text xml:space="preserve" font-family="Futura-CondensedMedium,Futura" font-size="36.0" fill="#3A5252" transform="matrix(1.00, 0.00, -0.00, -1.00, 469.0, 150.9)">a</text><text xml:space="preserve" font-family="Futura-CondensedMedium,Futura" font-size="36.0" fill="#3A5252" transform="matrix(1.00, 0.00, -0.00, -1.00, 483.1, 150.9)">i</text><text xml:space="preserve" font-family="Futura-CondensedMedium,Futura" font-size="36.0" fill="#3A5252" transform="matrix(1.00, 0.00, -0.00, -1.00, 490.3, 150.9)">l</text><text xml:space="preserve" font-family="Futura-CondensedMedium,Futura" font-size="36.0" fill="#3A5252" transform="matrix(1.00, 0.00, -0.00, -1.00, 497.5, 150.9)"> </text><text xml:space="preserve" font-family="Futura-CondensedMedium,Futura" font-size="36.0" fill="#3A5252" transform="matrix(1.00, 0.00, -0.00, -1.00, 504.9, 150.9)">a</text><text xml:space="preserve" font-family="Futura-CondensedMedium,Futura" font-size="36.0" fill="#3A5252" transform="matrix(1.00, 0.00, -0.00, -1.00, 519.1, 150.9)">n</text><text xml:space="preserve" font-family="Futura-CondensedMedium,Futura" font-size="36.0" fill="#3A5252" transform="matrix(1.00, 0.00, -0.00, -1.00, 533.7, 150.9)">d</text><text xml:space="preserve" font-family="Futura-CondensedMedium,Futura" font-size="36.0" fill="#3A5252" transform="matrix(1.00, 0.00, -0.00, -1.00, 547.9, 150.9)"> </text><text xml:space="preserve" font-family="Futura-CondensedMedium,Futura" font-size="36.0" fill="#3A5252" transform="matrix(1.00, 0.00, -0.00, -1.00, 555.3, 150.9)">a</text><text xml:space="preserve" font-family="Futura-CondensedMedium,Futura" font-size="36.0" fill="#3A5252" transform="matrix(1.00, 0.00, -0.00, -1.00, 569.5, 150.9)">n</text><text xml:space="preserve" font-family="Futura-CondensedMedium,Futura" font-size="36.0" fill="#3A5252" transform="matrix(1.00, 0.00, -0.00, -1.00, 584.1, 150.9)"> </text><text xml:space="preserve" font-family="Futura-CondensedMedium,Futura" font-size="36.0" fill="#3A5252" transform="matrix(1.00, 0.00, -0.00, -1.00, 591.5, 150.9)">e</text><text xml:space="preserve" font-family="Futura-CondensedMedium,Futura" font-size="36.0" fill="#3A5252" transform="matrix(1.00, 0.00, -0.00, -1.00, 604.8, 150.9)">m</text><text xml:space="preserve" font-family="Futura-CondensedMedium,Futura" font-size="36.0" fill="#3A5252" transform="matrix(1.00, 0.00, -0.00, -1.00, 626.8, 150.9)">a</text><text xml:space="preserve" font-family="Futura-CondensedMedium,Futura" font-size="36.0" fill="#3A5252" transform="matrix(1.00, 0.00, -0.00, -1.00, 640.9, 150.9)">i</text><text xml:space="preserve" font-family="Futura-CondensedMedium,Futura" font-size="36.0" fill="#3A5252" transform="matrix(1.00, 0.00, -0.00, -1.00, 648.1, 150.9)">l</text><text xml:space="preserve" font-family="Futura-CondensedMedium,Futura" font-size="36.0" fill="#3A5252" transform="matrix(1.00, 0.00, -0.00, -1.00, 655.3, 150.9)"> </text><text xml:space="preserve" font-family="Futura-CondensedMedium,Futura" font-size="36.0" fill="#3A5252" transform="matrix(1.00, 0.00, -0.00, -1.00, 662.7, 150.9)">r</text><text xml:space="preserve" font-family="Futura-CondensedMedium,Futura" font-size="36.0" fill="#3A5252" transform="matrix(1.00, 0.00, -0.00, -1.00, 672.4, 150.9)">e</text><text xml:space="preserve" font-family="Futura-CondensedMedium,Futura" font-size="36.0" fill="#3A5252" transform="matrix(1.00, 0.00, -0.00, -1.00, 685.7, 150.9)">s</text><text xml:space="preserve" font-family="Futura-CondensedMedium,Futura" font-size="36.0" fill="#3A5252" transform="matrix(1.00, 0.00, -0.00, -1.00, 696.3, 150.9)">p</text><text xml:space="preserve" font-family="Futura-CondensedMedium,Futura" font-size="36.0" fill="#3A5252" transform="matrix(1.00, 0.00, -0.00, -1.00, 710.5, 150.9)">o</text><text xml:space="preserve" font-family="Futura-CondensedMedium,Futura" font-size="36.0" fill="#3A5252" transform="matrix(1.00, 0.00, -0.00, -1.00, 724.3, 150.9)">n</text><text xml:space="preserve" font-family="Futura-CondensedMedium,Futura" font-size="36.0" fill="#3A5252" transform="matrix(1.00, 0.00, -0.00, -1.00, 738.9, 150.9)">s</text><text xml:space="preserve" font-family="Futura-CondensedMedium,Futura" font-size="36.0" fill="#3A5252" transform="matrix(1.00, 0.00, -0.00, -1.00, 749.5, 150.9)">e</text><text xml:space="preserve" font-family="Futura-CondensedMedium,Futura" font-size="36.0" fill="#3A5252" transform="matrix(1.00, 0.00, -0.00, -1.00, 762.7, 150.9)">.</text><image xlink:href="../../0AB4BD6E-AD8A-4976-A04E-3C091B98199B/assets/371566CC8579AEEE85FF374F5872A782.png" width="1367.00" height="435.00" transform="matrix(0.67, 0.00, -0.00, -0.67, 56.0, 537.3)"></image></g></svg>