<?xml version="1.0" encoding="UTF-8" standalone="no"?><svg xmlns="http://www.w3.org/2000/svg" xmlns:xlink="http://www.w3.org/1999/xlink" clip-rule="evenodd" stroke-miterlimit="10" viewBox="0 0 1024 768"><desc>SVG generated by Keynote</desc><defs></defs><g transform="matrix(1.00, 0.00, -0.00, -1.00, 0.0, 768.0)"><g><clipPath id="clip0x6000006b9140"><path d="M 0.0 768.0 L 1024.0 768.0 L 1024.0 0.0 L 0.0 0.0 Z M 0.0 768.0 "></path></clipPath><g clip-path="url(#clip0x6000006b9140)"><image xlink:href="36A78218EC91664F9E8CE4EC9C0D9D0B.png" width="1024.00" height="768.00" transform="matrix(1.00, 0.00, -0.00, -1.00, 0.0, 768.0)"></image></g></g><text xml:space="preserve" font-family="Futura-CondensedMedium,Futura" font-size="90.0" fill="#FEFFFF" transform="matrix(1.00, 0.00, -0.00, -1.00, 104.0, 633.3)">S</text><text xml:space="preserve" font-family="Futura-CondensedMedium,Futura" font-size="90.0" fill="#FEFFFF" transform="matrix(1.00, 0.00, -0.00, -1.00, 137.6, 633.3)">u</text><text xml:space="preserve" font-family="Futura-CondensedMedium,Futura" font-size="90.0" fill="#FEFFFF" transform="matrix(1.00, 0.00, -0.00, -1.00, 174.2, 633.3)">m</text><text xml:space="preserve" font-family="Futura-CondensedMedium,Futura" font-size="90.0" fill="#FEFFFF" transform="matrix(1.00, 0.00, -0.00, -1.00, 229.1, 633.3)">m</text><text xml:space="preserve" font-family="Futura-CondensedMedium,Futura" font-size="90.0" fill="#FEFFFF" transform="matrix(1.00, 0.00, -0.00, -1.00, 284.1, 633.3)">a</text><text xml:space="preserve" font-family="Futura-CondensedMedium,Futura" font-size="90.0" fill="#FEFFFF" transform="matrix(1.00, 0.00, -0.00, -1.00, 319.5, 633.3)">r</text><text xml:space="preserve" font-family="Futura-CondensedMedium,Futura" font-size="90.0" fill="#FEFFFF" transform="matrix(1.00, 0.00, -0.00, -1.00, 345.9, 633.3)">y</text><g><clipPath id="clip0x6000006ad860"><path d="M 9.0 282.1 L 88.3 282.1 L 88.3 325.3 L 9.0 325.3 Z M 9.0 282.1 "></path></clipPath><g clip-path="url(#clip0x6000006ad860)"><path d="M 107.0 -55.8 C 107.0 -55.8 101.5 -55.8 101.5 -55.8 C 101.5 -55.8 101.5 -3.8 101.5 -3.8 C 101.5 -3.8 107.0 -3.8 107.0 -3.8 " fill="none" stroke="#294242" stroke-width="1.00" transform="matrix(0.72, 0.00, 0.00, -0.72, 9.0, 282.1)"></path><path d="M 3.0 -29.8 C 3.0 -29.8 101.5 -29.8 101.5 -29.8 " fill="none" stroke="#294242" stroke-width="1.00" transform="matrix(0.72, 0.00, 0.00, -0.72, 9.0, 282.1)"></path></g></g><text xml:space="preserve" font-family="Futura-CondensedMedium,Futura" font-size="36.0" fill="#3A5252" transform="matrix(1.00, 0.00, -0.00, -1.00, 103.7, 289.9)">M</text><text xml:space="preserve" font-family="Futura-CondensedMedium,Futura" font-size="36.0" fill="#3A5252" transform="matrix(1.00, 0.00, -0.00, -1.00, 124.2, 289.9)">o</text><text xml:space="preserve" font-family="Futura-CondensedMedium,Futura" font-size="36.0" fill="#3A5252" transform="matrix(1.00, 0.00, -0.00, -1.00, 138.0, 289.9)">t</text><text xml:space="preserve" font-family="Futura-CondensedMedium,Futura" font-size="36.0" fill="#3A5252" transform="matrix(1.00, 0.00, -0.00, -1.00, 146.1, 289.9)">i</text><text xml:space="preserve" font-family="Futura-CondensedMedium,Futura" font-size="36.0" fill="#3A5252" transform="matrix(1.00, 0.00, -0.00, -1.00, 153.2, 289.9)">v</text><text xml:space="preserve" font-family="Futura-CondensedMedium,Futura" font-size="36.0" fill="#3A5252" transform="matrix(1.00, 0.00, -0.00, -1.00, 165.3, 289.9)">a</text><text xml:space="preserve" font-family="Futura-CondensedMedium,Futura" font-size="36.0" fill="#3A5252" transform="matrix(1.00, 0.00, -0.00, -1.00, 179.5, 289.9)">t</text><text xml:space="preserve" font-family="Futura-CondensedMedium,Futura" font-size="36.0" fill="#3A5252" transform="matrix(1.00, 0.00, -0.00, -1.00, 187.5, 289.9)">i</text><text xml:space="preserve" font-family="Futura-CondensedMedium,Futura" font-size="36.0" fill="#3A5252" transform="matrix(1.00, 0.00, -0.00, -1.00, 194.7, 289.9)">o</text><text xml:space="preserve" font-family="Futura-CondensedMedium,Futura" font-size="36.0" fill="#3A5252" transform="matrix(1.00, 0.00, -0.00, -1.00, 208.5, 289.9)">n</text><text xml:space="preserve" font-family="Futura-CondensedMedium,Futura" font-size="36.0" fill="#3A5252" transform="matrix(1.00, 0.00, -0.00, -1.00, 223.1, 289.9)">:</text><text xml:space="preserve" font-family="Futura-CondensedMedium,Futura" font-size="36.0" fill="#3A5252" transform="matrix(1.00, 0.00, -0.00, -1.00, 230.6, 289.9)"> </text><text xml:space="preserve" font-family="Futura-CondensedMedium,Futura" font-size="36.0" fill="#3A5252" transform="matrix(1.00, 0.00, -0.00, -1.00, 238.0, 289.9)">S</text><text xml:space="preserve" font-family="Futura-CondensedMedium,Futura" font-size="36.0" fill="#3A5252" transform="matrix(1.00, 0.00, -0.00, -1.00, 251.4, 289.9)">k</text><text xml:space="preserve" font-family="Futura-CondensedMedium,Futura" font-size="36.0" fill="#3A5252" transform="matrix(1.00, 0.00, -0.00, -1.00, 265.5, 289.9)">i</text><text xml:space="preserve" font-family="Futura-CondensedMedium,Futura" font-size="36.0" fill="#3A5252" transform="matrix(1.00, 0.00, -0.00, -1.00, 272.7, 289.9)">l</text><text xml:space="preserve" font-family="Futura-CondensedMedium,Futura" font-size="36.0" fill="#3A5252" transform="matrix(1.00, 0.00, -0.00, -1.00, 279.8, 289.9)">l</text><text xml:space="preserve" font-family="Futura-CondensedMedium,Futura" font-size="36.0" fill="#3A5252" transform="matrix(1.00, 0.00, -0.00, -1.00, 287.0, 289.9)">s</text><text xml:space="preserve" font-family="Futura-CondensedMedium,Futura" font-size="36.0" fill="#3A5252" transform="matrix(1.00, 0.00, -0.00, -1.00, 297.6, 289.9)"> </text><text xml:space="preserve" font-family="Futura-CondensedMedium,Futura" font-size="36.0" fill="#3A5252" transform="matrix(1.00, 0.00, -0.00, -1.00, 305.1, 289.9)">d</text><text xml:space="preserve" font-family="Futura-CondensedMedium,Futura" font-size="36.0" fill="#3A5252" transform="matrix(1.00, 0.00, -0.00, -1.00, 319.2, 289.9)">e</text><text xml:space="preserve" font-family="Futura-CondensedMedium,Futura" font-size="36.0" fill="#3A5252" transform="matrix(1.00, 0.00, -0.00, -1.00, 332.5, 289.9)">m</text><text xml:space="preserve" font-family="Futura-CondensedMedium,Futura" font-size="36.0" fill="#3A5252" transform="matrix(1.00, 0.00, -0.00, -1.00, 354.5, 289.9)">o</text><text xml:space="preserve" font-family="Futura-CondensedMedium,Futura" font-size="36.0" fill="#3A5252" transform="matrix(1.00, 0.00, -0.00, -1.00, 368.4, 289.9)">,</text><text xml:space="preserve" font-family="Futura-CondensedMedium,Futura" font-size="36.0" fill="#3A5252" transform="matrix(1.00, 0.00, -0.00, -1.00, 375.8, 289.9)"> </text><text xml:space="preserve" font-family="Futura-CondensedMedium,Futura" font-size="36.0" fill="#3A5252" transform="matrix(1.00, 0.00, -0.00, -1.00, 383.3, 289.9)">F</text><text xml:space="preserve" font-family="Futura-CondensedMedium,Futura" font-size="36.0" fill="#3A5252" transform="matrix(1.00, 0.00, -0.00, -1.00, 395.9, 289.9)">a</text><text xml:space="preserve" font-family="Futura-CondensedMedium,Futura" font-size="36.0" fill="#3A5252" transform="matrix(1.00, 0.00, -0.00, -1.00, 410.1, 289.9)">m</text><text xml:space="preserve" font-family="Futura-CondensedMedium,Futura" font-size="36.0" fill="#3A5252" transform="matrix(1.00, 0.00, -0.00, -1.00, 432.0, 289.9)">i</text><text xml:space="preserve" font-family="Futura-CondensedMedium,Futura" font-size="36.0" fill="#3A5252" transform="matrix(1.00, 0.00, -0.00, -1.00, 439.2, 289.9)">l</text><text xml:space="preserve" font-family="Futura-CondensedMedium,Futura" font-size="36.0" fill="#3A5252" transform="matrix(1.00, 0.00, -0.00, -1.00, 446.6, 289.9)">y</text><text xml:space="preserve" font-family="Futura-CondensedMedium,Futura" font-size="36.0" fill="#3A5252" transform="matrix(1.00, 0.00, -0.00, -1.00, 459.8, 289.9)"> </text><text xml:space="preserve" font-family="Futura-CondensedMedium,Futura" font-size="36.0" fill="#3A5252" transform="matrix(1.00, 0.00, -0.00, -1.00, 467.3, 289.9)">a</text><text xml:space="preserve" font-family="Futura-CondensedMedium,Futura" font-size="36.0" fill="#3A5252" transform="matrix(1.00, 0.00, -0.00, -1.00, 481.5, 289.9)">c</text><text xml:space="preserve" font-family="Futura-CondensedMedium,Futura" font-size="36.0" fill="#3A5252" transform="matrix(1.00, 0.00, -0.00, -1.00, 491.7, 289.9)">c</text><text xml:space="preserve" font-family="Futura-CondensedMedium,Futura" font-size="36.0" fill="#3A5252" transform="matrix(1.00, 0.00, -0.00, -1.00, 502.0, 289.9)">e</text><text xml:space="preserve" font-family="Futura-CondensedMedium,Futura" font-size="36.0" fill="#3A5252" transform="matrix(1.00, 0.00, -0.00, -1.00, 515.3, 289.9)">s</text><text xml:space="preserve" font-family="Futura-CondensedMedium,Futura" font-size="36.0" fill="#3A5252" transform="matrix(1.00, 0.00, -0.00, -1.00, 525.9, 289.9)">s</text><text xml:space="preserve" font-family="Futura-CondensedMedium,Futura" font-size="36.0" fill="#3A5252" transform="matrix(1.00, 0.00, -0.00, -1.00, 536.4, 289.9)">i</text><text xml:space="preserve" font-family="Futura-CondensedMedium,Futura" font-size="36.0" fill="#3A5252" transform="matrix(1.00, 0.00, -0.00, -1.00, 543.6, 289.9)">b</text><text xml:space="preserve" font-family="Futura-CondensedMedium,Futura" font-size="36.0" fill="#3A5252" transform="matrix(1.00, 0.00, -0.00, -1.00, 557.8, 289.9)">l</text><text xml:space="preserve" font-family="Futura-CondensedMedium,Futura" font-size="36.0" fill="#3A5252" transform="matrix(1.00, 0.00, -0.00, -1.00, 564.9, 289.9)">e</text><text xml:space="preserve" font-family="Futura-CondensedMedium,Futura" font-size="36.0" fill="#3A5252" transform="matrix(1.00, 0.00, -0.00, -1.00, 578.2, 289.9)">,</text><text xml:space="preserve" font-family="Futura-CondensedMedium,Futura" font-size="36.0" fill="#3A5252" transform="matrix(1.00, 0.00, -0.00, -1.00, 585.7, 289.9)"> </text><text xml:space="preserve" font-family="Futura-CondensedMedium,Futura" font-size="36.0" fill="#3A5252" transform="matrix(1.00, 0.00, -0.00, -1.00, 593.1, 289.9)">N</text><text xml:space="preserve" font-family="Futura-CondensedMedium,Futura" font-size="36.0" fill="#3A5252" transform="matrix(1.00, 0.00, -0.00, -1.00, 610.0, 289.9)">e</text><text xml:space="preserve" font-family="Futura-CondensedMedium,Futura" font-size="36.0" fill="#3A5252" transform="matrix(1.00, 0.00, -0.00, -1.00, 623.0, 289.9)">w</text><text xml:space="preserve" font-family="Futura-CondensedMedium,Futura" font-size="36.0" fill="#3A5252" transform="matrix(1.00, 0.00, -0.00, -1.00, 641.3, 289.9)"> </text><text xml:space="preserve" font-family="Futura-CondensedMedium,Futura" font-size="36.0" fill="#3A5252" transform="matrix(1.00, 0.00, -0.00, -1.00, 648.8, 289.9)">Y</text><text xml:space="preserve" font-family="Futura-CondensedMedium,Futura" font-size="36.0" fill="#3A5252" transform="matrix(1.00, 0.00, -0.00, -1.00, 661.5, 289.9)">e</text><text xml:space="preserve" font-family="Futura-CondensedMedium,Futura" font-size="36.0" fill="#3A5252" transform="matrix(1.00, 0.00, -0.00, -1.00, 674.7, 289.9)">a</text><text xml:space="preserve" font-family="Futura-CondensedMedium,Futura" font-size="36.0" fill="#3A5252" transform="matrix(1.00, 0.00, -0.00, -1.00, 688.9, 289.9)">r</text><text xml:space="preserve" font-family="Futura-CondensedMedium,Futura" font-size="36.0" fill="#3A5252" transform="matrix(1.00, 0.00, -0.00, -1.00, 698.9, 289.9)">’</text><text xml:space="preserve" font-family="Futura-CondensedMedium,Futura" font-size="36.0" fill="#3A5252" transform="matrix(1.00, 0.00, -0.00, -1.00, 706.5, 289.9)">s</text><text xml:space="preserve" font-family="Futura-CondensedMedium,Futura" font-size="36.0" fill="#3A5252" transform="matrix(1.00, 0.00, -0.00, -1.00, 717.1, 289.9)"> </text><text xml:space="preserve" font-family="Futura-CondensedMedium,Futura" font-size="36.0" fill="#3A5252" transform="matrix(1.00, 0.00, -0.00, -1.00, 724.6, 289.9)">r</text><text xml:space="preserve" font-family="Futura-CondensedMedium,Futura" font-size="36.0" fill="#3A5252" transform="matrix(1.00, 0.00, -0.00, -1.00, 734.3, 289.9)">e</text><text xml:space="preserve" font-family="Futura-CondensedMedium,Futura" font-size="36.0" fill="#3A5252" transform="matrix(1.00, 0.00, -0.00, -1.00, 747.6, 289.9)">s</text><text xml:space="preserve" font-family="Futura-CondensedMedium,Futura" font-size="36.0" fill="#3A5252" transform="matrix(1.00, 0.00, -0.00, -1.00, 758.1, 289.9)">o</text><text xml:space="preserve" font-family="Futura-CondensedMedium,Futura" font-size="36.0" fill="#3A5252" transform="matrix(1.00, 0.00, -0.00, -1.00, 772.0, 289.9)">l</text><text xml:space="preserve" font-family="Futura-CondensedMedium,Futura" font-size="36.0" fill="#3A5252" transform="matrix(1.00, 0.00, -0.00, -1.00, 779.2, 289.9)">u</text><text xml:space="preserve" font-family="Futura-CondensedMedium,Futura" font-size="36.0" fill="#3A5252" transform="matrix(1.00, 0.00, -0.00, -1.00, 793.8, 289.9)">t</text><text xml:space="preserve" font-family="Futura-CondensedMedium,Futura" font-size="36.0" fill="#3A5252" transform="matrix(1.00, 0.00, -0.00, -1.00, 801.8, 289.9)">i</text><text xml:space="preserve" font-family="Futura-CondensedMedium,Futura" font-size="36.0" fill="#3A5252" transform="matrix(1.00, 0.00, -0.00, -1.00, 809.0, 289.9)">o</text><text xml:space="preserve" font-family="Futura-CondensedMedium,Futura" font-size="36.0" fill="#3A5252" transform="matrix(1.00, 0.00, -0.00, -1.00, 822.9, 289.9)">n</text><text xml:space="preserve" font-family="Futura-CondensedMedium,Futura" font-size="36.0" fill="#3A5252" transform="matrix(1.00, 0.00, -0.00, -1.00, 837.4, 289.9)">s</text></g></svg>