<?xml version="1.0" encoding="UTF-8" standalone="no"?><svg xmlns="http://www.w3.org/2000/svg" xmlns:xlink="http://www.w3.org/1999/xlink" clip-rule="evenodd" stroke-miterlimit="10" viewBox="0 0 1024 768"><desc>SVG generated by Keynote</desc><defs></defs><g transform="matrix(1.00, 0.00, -0.00, -1.00, 0.0, 768.0)"><g><clipPath id="clip0x600000aa4380"><path d="M 0.0 768.0 L 1024.0 768.0 L 1024.0 0.0 L 0.0 0.0 Z M 0.0 768.0 "></path></clipPath><g clip-path="url(#clip0x600000aa4380)"><image xlink:href="../../8D3ED16D-0AC6-4687-B857-35986CF62247/assets/36A78218EC91664F9E8CE4EC9C0D9D0B.png" width="1024.00" height="768.00" transform="matrix(1.00, 0.00, -0.00, -1.00, 0.0, 768.0)"></image></g></g><text xml:space="preserve" font-family="Futura-CondensedMedium,Futura" font-size="90.0" fill="#FEFFFF" transform="matrix(1.00, 0.00, -0.00, -1.00, 104.0, 633.3)">R</text><text xml:space="preserve" font-family="Futura-CondensedMedium,Futura" font-size="90.0" fill="#FEFFFF" transform="matrix(1.00, 0.00, -0.00, -1.00, 140.7, 633.3)">e</text><text xml:space="preserve" font-family="Futura-CondensedMedium,Futura" font-size="90.0" fill="#FEFFFF" transform="matrix(1.00, 0.00, -0.00, -1.00, 173.8, 633.3)">s</text><text xml:space="preserve" font-family="Futura-CondensedMedium,Futura" font-size="90.0" fill="#FEFFFF" transform="matrix(1.00, 0.00, -0.00, -1.00, 200.3, 633.3)">u</text><text xml:space="preserve" font-family="Futura-CondensedMedium,Futura" font-size="90.0" fill="#FEFFFF" transform="matrix(1.00, 0.00, -0.00, -1.00, 236.9, 633.3)">l</text><text xml:space="preserve" font-family="Futura-CondensedMedium,Futura" font-size="90.0" fill="#FEFFFF" transform="matrix(1.00, 0.00, -0.00, -1.00, 254.8, 633.3)">t</text><text xml:space="preserve" font-family="Futura-CondensedMedium,Futura" font-size="90.0" fill="#FEFFFF" transform="matrix(1.00, 0.00, -0.00, -1.00, 274.8, 633.3)">s</text><text xml:space="preserve" font-family="Futura-CondensedMedium,Futura" font-size="90.0" fill="#FEFFFF" transform="matrix(1.00, 0.00, -0.00, -1.00, 301.3, 633.3)"> </text><text xml:space="preserve" font-family="Futura-CondensedMedium,Futura" font-size="90.0" fill="#FEFFFF" transform="matrix(1.00, 0.00, -0.00, -1.00, 319.9, 633.3)">-</text><text xml:space="preserve" font-family="Futura-CondensedMedium,Futura" font-size="90.0" fill="#FEFFFF" transform="matrix(1.00, 0.00, -0.00, -1.00, 335.9, 633.3)"> </text><text xml:space="preserve" font-family="Futura-CondensedMedium,Futura" font-size="90.0" fill="#FEFFFF" transform="matrix(1.00, 0.00, -0.00, -1.00, 354.5, 633.3)">S</text><text xml:space="preserve" font-family="Futura-CondensedMedium,Futura" font-size="90.0" fill="#FEFFFF" transform="matrix(1.00, 0.00, -0.00, -1.00, 388.1, 633.3)">c</text><text xml:space="preserve" font-family="Futura-CondensedMedium,Futura" font-size="90.0" fill="#FEFFFF" transform="matrix(1.00, 0.00, -0.00, -1.00, 413.8, 633.3)">r</text><text xml:space="preserve" font-family="Futura-CondensedMedium,Futura" font-size="90.0" fill="#FEFFFF" transform="matrix(1.00, 0.00, -0.00, -1.00, 438.1, 633.3)">e</text><text xml:space="preserve" font-family="Futura-CondensedMedium,Futura" font-size="90.0" fill="#FEFFFF" transform="matrix(1.00, 0.00, -0.00, -1.00, 471.2, 633.3)">e</text><text xml:space="preserve" font-family="Futura-CondensedMedium,Futura" font-size="90.0" fill="#FEFFFF" transform="matrix(1.00, 0.00, -0.00, -1.00, 504.4, 633.3)">n</text><text xml:space="preserve" font-family="Futura-CondensedMedium,Futura" font-size="90.0" fill="#FEFFFF" transform="matrix(1.00, 0.00, -0.00, -1.00, 540.8, 633.3)"> </text><text xml:space="preserve" font-family="Futura-CondensedMedium,Futura" font-size="90.0" fill="#FEFFFF" transform="matrix(1.00, 0.00, -0.00, -1.00, 559.4, 633.3)">s</text><text xml:space="preserve" font-family="Futura-CondensedMedium,Futura" font-size="90.0" fill="#FEFFFF" transform="matrix(1.00, 0.00, -0.00, -1.00, 585.9, 633.3)">h</text><text xml:space="preserve" font-family="Futura-CondensedMedium,Futura" font-size="90.0" fill="#FEFFFF" transform="matrix(1.00, 0.00, -0.00, -1.00, 622.3, 633.3)">o</text><text xml:space="preserve" font-family="Futura-CondensedMedium,Futura" font-size="90.0" fill="#FEFFFF" transform="matrix(1.00, 0.00, -0.00, -1.00, 656.9, 633.3)">t</text><text xml:space="preserve" font-family="Futura-CondensedMedium,Futura" font-size="90.0" fill="#FEFFFF" transform="matrix(1.00, 0.00, -0.00, -1.00, 676.9, 633.3)">s</text><text xml:space="preserve" font-family="Futura-CondensedMedium,Futura" font-size="36.0" fill="#3A5252" transform="matrix(1.00, 0.00, -0.00, -1.00, 258.6, 145.9)">F</text><text xml:space="preserve" font-family="Futura-CondensedMedium,Futura" font-size="36.0" fill="#3A5252" transform="matrix(1.00, 0.00, -0.00, -1.00, 271.6, 145.9)">i</text><text xml:space="preserve" font-family="Futura-CondensedMedium,Futura" font-size="36.0" fill="#3A5252" transform="matrix(1.00, 0.00, -0.00, -1.00, 278.8, 145.9)">g</text><text xml:space="preserve" font-family="Futura-CondensedMedium,Futura" font-size="36.0" fill="#3A5252" transform="matrix(1.00, 0.00, -0.00, -1.00, 293.0, 145.9)">u</text><text xml:space="preserve" font-family="Futura-CondensedMedium,Futura" font-size="36.0" fill="#3A5252" transform="matrix(1.00, 0.00, -0.00, -1.00, 307.6, 145.9)">r</text><text xml:space="preserve" font-family="Futura-CondensedMedium,Futura" font-size="36.0" fill="#3A5252" transform="matrix(1.00, 0.00, -0.00, -1.00, 317.4, 145.9)">e</text><text xml:space="preserve" font-family="Futura-CondensedMedium,Futura" font-size="36.0" fill="#3A5252" transform="matrix(1.00, 0.00, -0.00, -1.00, 330.6, 145.9)"> </text><text xml:space="preserve" font-family="Futura-CondensedMedium,Futura" font-size="36.0" fill="#3A5252" transform="matrix(1.00, 0.00, -0.00, -1.00, 338.1, 145.9)">2</text><text xml:space="preserve" font-family="Futura-CondensedMedium,Futura" font-size="36.0" fill="#3A5252" transform="matrix(1.00, 0.00, -0.00, -1.00, 353.0, 145.9)">.</text><text xml:space="preserve" font-family="Futura-CondensedMedium,Futura" font-size="36.0" fill="#3A5252" transform="matrix(1.00, 0.00, -0.00, -1.00, 360.4, 145.9)"> </text><text xml:space="preserve" font-family="Futura-CondensedMedium,Futura" font-size="36.0" fill="#3A5252" transform="matrix(1.00, 0.00, -0.00, -1.00, 367.9, 145.9)">B</text><text xml:space="preserve" font-family="Futura-CondensedMedium,Futura" font-size="36.0" fill="#3A5252" transform="matrix(1.00, 0.00, -0.00, -1.00, 382.7, 145.9)">o</text><text xml:space="preserve" font-family="Futura-CondensedMedium,Futura" font-size="36.0" fill="#3A5252" transform="matrix(1.00, 0.00, -0.00, -1.00, 396.6, 145.9)">o</text><text xml:space="preserve" font-family="Futura-CondensedMedium,Futura" font-size="36.0" fill="#3A5252" transform="matrix(1.00, 0.00, -0.00, -1.00, 410.5, 145.9)">l</text><text xml:space="preserve" font-family="Futura-CondensedMedium,Futura" font-size="36.0" fill="#3A5252" transform="matrix(1.00, 0.00, -0.00, -1.00, 417.6, 145.9)">e</text><text xml:space="preserve" font-family="Futura-CondensedMedium,Futura" font-size="36.0" fill="#3A5252" transform="matrix(1.00, 0.00, -0.00, -1.00, 430.9, 145.9)">a</text><text xml:space="preserve" font-family="Futura-CondensedMedium,Futura" font-size="36.0" fill="#3A5252" transform="matrix(1.00, 0.00, -0.00, -1.00, 445.1, 145.9)">n</text><text xml:space="preserve" font-family="Futura-CondensedMedium,Futura" font-size="36.0" fill="#3A5252" transform="matrix(1.00, 0.00, -0.00, -1.00, 459.6, 145.9)"> </text><text xml:space="preserve" font-family="Futura-CondensedMedium,Futura" font-size="36.0" fill="#3A5252" transform="matrix(1.00, 0.00, -0.00, -1.00, 467.1, 145.9)">c</text><text xml:space="preserve" font-family="Futura-CondensedMedium,Futura" font-size="36.0" fill="#3A5252" transform="matrix(1.00, 0.00, -0.00, -1.00, 477.2, 145.9)">h</text><text xml:space="preserve" font-family="Futura-CondensedMedium,Futura" font-size="36.0" fill="#3A5252" transform="matrix(1.00, 0.00, -0.00, -1.00, 491.7, 145.9)">a</text><text xml:space="preserve" font-family="Futura-CondensedMedium,Futura" font-size="36.0" fill="#3A5252" transform="matrix(1.00, 0.00, -0.00, -1.00, 505.9, 145.9)">r</text><text xml:space="preserve" font-family="Futura-CondensedMedium,Futura" font-size="36.0" fill="#3A5252" transform="matrix(1.00, 0.00, -0.00, -1.00, 516.3, 145.9)">t</text><text xml:space="preserve" font-family="Futura-CondensedMedium,Futura" font-size="36.0" fill="#3A5252" transform="matrix(1.00, 0.00, -0.00, -1.00, 524.3, 145.9)"> </text><text xml:space="preserve" font-family="Futura-CondensedMedium,Futura" font-size="36.0" fill="#3A5252" transform="matrix(1.00, 0.00, -0.00, -1.00, 531.7, 145.9)">p</text><text xml:space="preserve" font-family="Futura-CondensedMedium,Futura" font-size="36.0" fill="#3A5252" transform="matrix(1.00, 0.00, -0.00, -1.00, 545.9, 145.9)">r</text><text xml:space="preserve" font-family="Futura-CondensedMedium,Futura" font-size="36.0" fill="#3A5252" transform="matrix(1.00, 0.00, -0.00, -1.00, 555.7, 145.9)">o</text><text xml:space="preserve" font-family="Futura-CondensedMedium,Futura" font-size="36.0" fill="#3A5252" transform="matrix(1.00, 0.00, -0.00, -1.00, 569.5, 145.9)">d</text><text xml:space="preserve" font-family="Futura-CondensedMedium,Futura" font-size="36.0" fill="#3A5252" transform="matrix(1.00, 0.00, -0.00, -1.00, 583.7, 145.9)">u</text><text xml:space="preserve" font-family="Futura-CondensedMedium,Futura" font-size="36.0" fill="#3A5252" transform="matrix(1.00, 0.00, -0.00, -1.00, 598.4, 145.9)">c</text><text xml:space="preserve" font-family="Futura-CondensedMedium,Futura" font-size="36.0" fill="#3A5252" transform="matrix(1.00, 0.00, -0.00, -1.00, 608.6, 145.9)">e</text><text xml:space="preserve" font-family="Futura-CondensedMedium,Futura" font-size="36.0" fill="#3A5252" transform="matrix(1.00, 0.00, -0.00, -1.00, 621.9, 145.9)">d</text><text xml:space="preserve" font-family="Futura-CondensedMedium,Futura" font-size="36.0" fill="#3A5252" transform="matrix(1.00, 0.00, -0.00, -1.00, 636.1, 145.9)"> </text><text xml:space="preserve" font-family="Futura-CondensedMedium,Futura" font-size="36.0" fill="#3A5252" transform="matrix(1.00, 0.00, -0.00, -1.00, 643.5, 145.9)">b</text><text xml:space="preserve" font-family="Futura-CondensedMedium,Futura" font-size="36.0" fill="#3A5252" transform="matrix(1.00, 0.00, -0.00, -1.00, 657.6, 145.9)">y</text><text xml:space="preserve" font-family="Futura-CondensedMedium,Futura" font-size="36.0" fill="#3A5252" transform="matrix(1.00, 0.00, -0.00, -1.00, 670.9, 145.9)"> </text><text xml:space="preserve" font-family="Futura-CondensedMedium,Futura" font-size="36.0" fill="#3A5252" transform="matrix(1.00, 0.00, -0.00, -1.00, 678.3, 145.9)">g</text><text xml:space="preserve" font-family="Futura-CondensedMedium,Futura" font-size="36.0" fill="#3A5252" transform="matrix(1.00, 0.00, -0.00, -1.00, 692.5, 145.9)">o</text><text xml:space="preserve" font-family="Futura-CondensedMedium,Futura" font-size="36.0" fill="#3A5252" transform="matrix(1.00, 0.00, -0.00, -1.00, 706.4, 145.9)">a</text><text xml:space="preserve" font-family="Futura-CondensedMedium,Futura" font-size="36.0" fill="#3A5252" transform="matrix(1.00, 0.00, -0.00, -1.00, 720.6, 145.9)">l</text><text xml:space="preserve" font-family="Futura-CondensedMedium,Futura" font-size="36.0" fill="#3A5252" transform="matrix(1.00, 0.00, -0.00, -1.00, 727.8, 145.9)">.</text><text xml:space="preserve" font-family="Futura-CondensedMedium,Futura" font-size="36.0" fill="#3A5252" transform="matrix(1.00, 0.00, -0.00, -1.00, 735.2, 145.9)">l</text><text xml:space="preserve" font-family="Futura-CondensedMedium,Futura" font-size="36.0" fill="#3A5252" transform="matrix(1.00, 0.00, -0.00, -1.00, 742.6, 145.9)">y</text><text xml:space="preserve" font-family="Futura-CondensedMedium,Futura" font-size="36.0" fill="#3A5252" transform="matrix(1.00, 0.00, -0.00, -1.00, 754.6, 145.9)">.</text><image xlink:href="../../779EFAF2-137E-4910-8129-F5D478113415/assets/DA2207D5D85E7805B56D09B320BB530C.png" width="1357.00" height="500.00" transform="matrix(0.68, 0.00, -0.00, -0.68, 47.0, 562.9)"></image></g></svg>