<?xml version="1.0" encoding="UTF-8" standalone="no"?><svg xmlns="http://www.w3.org/2000/svg" xmlns:xlink="http://www.w3.org/1999/xlink" clip-rule="evenodd" stroke-miterlimit="10" viewBox="0 0 1024 768"><desc>SVG generated by Keynote</desc><defs></defs><g transform="matrix(1.00, 0.00, -0.00, -1.00, 0.0, 768.0)"><g><clipPath id="clip0x600000aafea0"><path d="M 0.0 768.0 L 1024.0 768.0 L 1024.0 0.0 L 0.0 0.0 Z M 0.0 768.0 "></path></clipPath><g clip-path="url(#clip0x600000aafea0)"><image xlink:href="../../8D3ED16D-0AC6-4687-B857-35986CF62247/assets/36A78218EC91664F9E8CE4EC9C0D9D0B.png" width="1024.00" height="768.00" transform="matrix(1.00, 0.00, -0.00, -1.00, 0.0, 768.0)"></image></g></g><text xml:space="preserve" font-family="Futura-CondensedMedium,Futura" font-size="85.0" fill="#FEFFFF" transform="matrix(1.00, 0.00, -0.00, -1.00, 104.0, 636.1)">C</text><text xml:space="preserve" font-family="Futura-CondensedMedium,Futura" font-size="85.0" fill="#FEFFFF" transform="matrix(1.00, 0.00, -0.00, -1.00, 136.4, 636.1)">o</text><text xml:space="preserve" font-family="Futura-CondensedMedium,Futura" font-size="85.0" fill="#FEFFFF" transform="matrix(1.00, 0.00, -0.00, -1.00, 169.2, 636.1)">n</text><text xml:space="preserve" font-family="Futura-CondensedMedium,Futura" font-size="85.0" fill="#FEFFFF" transform="matrix(1.00, 0.00, -0.00, -1.00, 203.6, 636.1)">c</text><text xml:space="preserve" font-family="Futura-CondensedMedium,Futura" font-size="85.0" fill="#FEFFFF" transform="matrix(1.00, 0.00, -0.00, -1.00, 227.8, 636.1)">l</text><text xml:space="preserve" font-family="Futura-CondensedMedium,Futura" font-size="85.0" fill="#FEFFFF" transform="matrix(1.00, 0.00, -0.00, -1.00, 244.8, 636.1)">u</text><text xml:space="preserve" font-family="Futura-CondensedMedium,Futura" font-size="85.0" fill="#FEFFFF" transform="matrix(1.00, 0.00, -0.00, -1.00, 279.4, 636.1)">s</text><text xml:space="preserve" font-family="Futura-CondensedMedium,Futura" font-size="85.0" fill="#FEFFFF" transform="matrix(1.00, 0.00, -0.00, -1.00, 304.3, 636.1)">i</text><text xml:space="preserve" font-family="Futura-CondensedMedium,Futura" font-size="85.0" fill="#FEFFFF" transform="matrix(1.00, 0.00, -0.00, -1.00, 321.2, 636.1)">o</text><text xml:space="preserve" font-family="Futura-CondensedMedium,Futura" font-size="85.0" fill="#FEFFFF" transform="matrix(1.00, 0.00, -0.00, -1.00, 354.0, 636.1)">n</text><text xml:space="preserve" font-family="Futura-CondensedMedium,Futura" font-size="85.0" fill="#FEFFFF" transform="matrix(1.00, 0.00, -0.00, -1.00, 388.4, 636.1)">s</text><text xml:space="preserve" font-family="Futura-CondensedMedium,Futura" font-size="85.0" fill="#FEFFFF" transform="matrix(1.00, 0.00, -0.00, -1.00, 413.3, 636.1)"> </text><text xml:space="preserve" font-family="Futura-CondensedMedium,Futura" font-size="85.0" fill="#FEFFFF" transform="matrix(1.00, 0.00, -0.00, -1.00, 430.9, 636.1)">a</text><text xml:space="preserve" font-family="Futura-CondensedMedium,Futura" font-size="85.0" fill="#FEFFFF" transform="matrix(1.00, 0.00, -0.00, -1.00, 464.4, 636.1)">n</text><text xml:space="preserve" font-family="Futura-CondensedMedium,Futura" font-size="85.0" fill="#FEFFFF" transform="matrix(1.00, 0.00, -0.00, -1.00, 498.8, 636.1)">d</text><text xml:space="preserve" font-family="Futura-CondensedMedium,Futura" font-size="85.0" fill="#FEFFFF" transform="matrix(1.00, 0.00, -0.00, -1.00, 532.3, 636.1)"> </text><text xml:space="preserve" font-family="Futura-CondensedMedium,Futura" font-size="85.0" fill="#FEFFFF" transform="matrix(1.00, 0.00, -0.00, -1.00, 549.9, 636.1)">F</text><text xml:space="preserve" font-family="Futura-CondensedMedium,Futura" font-size="85.0" fill="#FEFFFF" transform="matrix(1.00, 0.00, -0.00, -1.00, 579.0, 636.1)">u</text><text xml:space="preserve" font-family="Futura-CondensedMedium,Futura" font-size="85.0" fill="#FEFFFF" transform="matrix(1.00, 0.00, -0.00, -1.00, 613.6, 636.1)">t</text><text xml:space="preserve" font-family="Futura-CondensedMedium,Futura" font-size="85.0" fill="#FEFFFF" transform="matrix(1.00, 0.00, -0.00, -1.00, 632.5, 636.1)">u</text><text xml:space="preserve" font-family="Futura-CondensedMedium,Futura" font-size="85.0" fill="#FEFFFF" transform="matrix(1.00, 0.00, -0.00, -1.00, 667.0, 636.1)">r</text><text xml:space="preserve" font-family="Futura-CondensedMedium,Futura" font-size="85.0" fill="#FEFFFF" transform="matrix(1.00, 0.00, -0.00, -1.00, 690.0, 636.1)">e</text><text xml:space="preserve" font-family="Futura-CondensedMedium,Futura" font-size="85.0" fill="#FEFFFF" transform="matrix(1.00, 0.00, -0.00, -1.00, 721.3, 636.1)"> </text><text xml:space="preserve" font-family="Futura-CondensedMedium,Futura" font-size="85.0" fill="#FEFFFF" transform="matrix(1.00, 0.00, -0.00, -1.00, 738.9, 636.1)">W</text><text xml:space="preserve" font-family="Futura-CondensedMedium,Futura" font-size="85.0" fill="#FEFFFF" transform="matrix(1.00, 0.00, -0.00, -1.00, 787.8, 636.1)">o</text><text xml:space="preserve" font-family="Futura-CondensedMedium,Futura" font-size="85.0" fill="#FEFFFF" transform="matrix(1.00, 0.00, -0.00, -1.00, 820.6, 636.1)">r</text><text xml:space="preserve" font-family="Futura-CondensedMedium,Futura" font-size="85.0" fill="#FEFFFF" transform="matrix(1.00, 0.00, -0.00, -1.00, 843.5, 636.1)">k</text><g><clipPath id="clip0x6100004b06e0"><path d="M 9.0 354.1 L 88.3 354.1 L 88.3 397.3 L 9.0 397.3 Z M 9.0 354.1 "></path></clipPath><g clip-path="url(#clip0x6100004b06e0)"><path d="M 107.0 -55.8 C 107.0 -55.8 101.5 -55.8 101.5 -55.8 C 101.5 -55.8 101.5 -3.8 101.5 -3.8 C 101.5 -3.8 107.0 -3.8 107.0 -3.8 " fill="none" stroke="#294242" stroke-width="1.00" transform="matrix(0.72, 0.00, 0.00, -0.72, 9.0, 354.1)"></path><path d="M 3.0 -29.8 C 3.0 -29.8 101.5 -29.8 101.5 -29.8 " fill="none" stroke="#294242" stroke-width="1.00" transform="matrix(0.72, 0.00, 0.00, -0.72, 9.0, 354.1)"></path></g></g><text xml:space="preserve" font-family="Futura-CondensedMedium,Futura" font-size="36.0" fill="#3A5252" transform="matrix(1.00, 0.00, -0.00, -1.00, 103.7, 361.9)">h</text><text xml:space="preserve" font-family="Futura-CondensedMedium,Futura" font-size="36.0" fill="#3A5252" transform="matrix(1.00, 0.00, -0.00, -1.00, 118.2, 361.9)">t</text><text xml:space="preserve" font-family="Futura-CondensedMedium,Futura" font-size="36.0" fill="#3A5252" transform="matrix(1.00, 0.00, -0.00, -1.00, 126.2, 361.9)">t</text><text xml:space="preserve" font-family="Futura-CondensedMedium,Futura" font-size="36.0" fill="#3A5252" transform="matrix(1.00, 0.00, -0.00, -1.00, 134.2, 361.9)">p</text><text xml:space="preserve" font-family="Futura-CondensedMedium,Futura" font-size="36.0" fill="#3A5252" transform="matrix(1.00, 0.00, -0.00, -1.00, 148.4, 361.9)">:</text><text xml:space="preserve" font-family="Futura-CondensedMedium,Futura" font-size="36.0" fill="#3A5252" transform="matrix(1.00, 0.00, -0.00, -1.00, 155.9, 361.9)">/</text><text xml:space="preserve" font-family="Futura-CondensedMedium,Futura" font-size="36.0" fill="#3A5252" transform="matrix(1.00, 0.00, -0.00, -1.00, 172.1, 361.9)">/</text><text xml:space="preserve" font-family="Futura-CondensedMedium,Futura" font-size="36.0" fill="#3A5252" transform="matrix(1.00, 0.00, -0.00, -1.00, 188.3, 361.9)">g</text><text xml:space="preserve" font-family="Futura-CondensedMedium,Futura" font-size="36.0" fill="#3A5252" transform="matrix(1.00, 0.00, -0.00, -1.00, 202.5, 361.9)">o</text><text xml:space="preserve" font-family="Futura-CondensedMedium,Futura" font-size="36.0" fill="#3A5252" transform="matrix(1.00, 0.00, -0.00, -1.00, 216.4, 361.9)">a</text><text xml:space="preserve" font-family="Futura-CondensedMedium,Futura" font-size="36.0" fill="#3A5252" transform="matrix(1.00, 0.00, -0.00, -1.00, 230.6, 361.9)">l</text><text xml:space="preserve" font-family="Futura-CondensedMedium,Futura" font-size="36.0" fill="#3A5252" transform="matrix(1.00, 0.00, -0.00, -1.00, 237.8, 361.9)">.</text><text xml:space="preserve" font-family="Futura-CondensedMedium,Futura" font-size="36.0" fill="#3A5252" transform="matrix(1.00, 0.00, -0.00, -1.00, 245.2, 361.9)">l</text><text xml:space="preserve" font-family="Futura-CondensedMedium,Futura" font-size="36.0" fill="#3A5252" transform="matrix(1.00, 0.00, -0.00, -1.00, 252.6, 361.9)">y</text><text xml:space="preserve" font-family="Futura-CondensedMedium,Futura" font-size="36.0" fill="#3A5252" transform="matrix(1.00, 0.00, -0.00, -1.00, 265.9, 361.9)">/</text><text xml:space="preserve" font-family="Futura-CondensedMedium,Futura" font-size="36.0" fill="#3A5252" transform="matrix(1.00, 0.00, -0.00, -1.00, 282.1, 361.9)"> </text><g><clipPath id="clip0x6100004b0fe0"><path d="M 102.7 355.8 L 265.9 355.8 L 265.9 360.3 L 102.7 360.3 Z M 102.7 355.8 "></path></clipPath><g clip-path="url(#clip0x6100004b0fe0)"><path d="M 102.7 190.9 L 264.9 190.9 " fill="none" stroke="#3A5252" stroke-width="2.46" transform="matrix(1.00, 0.00, 0.00, -1.00, 1.0, 549.0)"></path></g></g><g><clipPath id="clip0x6100004b1220"><path d="M 9.0 282.1 L 88.3 282.1 L 88.3 325.3 L 9.0 325.3 Z M 9.0 282.1 "></path></clipPath><g clip-path="url(#clip0x6100004b1220)"><path d="M 107.0 -55.8 C 107.0 -55.8 101.5 -55.8 101.5 -55.8 C 101.5 -55.8 101.5 -3.8 101.5 -3.8 C 101.5 -3.8 107.0 -3.8 107.0 -3.8 " fill="none" stroke="#294242" stroke-width="1.00" transform="matrix(0.72, 0.00, 0.00, -0.72, 9.0, 282.1)"></path><path d="M 3.0 -29.8 C 3.0 -29.8 101.5 -29.8 101.5 -29.8 " fill="none" stroke="#294242" stroke-width="1.00" transform="matrix(0.72, 0.00, 0.00, -0.72, 9.0, 282.1)"></path></g></g><text xml:space="preserve" font-family="Futura-CondensedMedium,Futura" font-size="36.0" fill="#3A5252" transform="matrix(1.00, 0.00, -0.00, -1.00, 103.7, 289.9)">h</text><text xml:space="preserve" font-family="Futura-CondensedMedium,Futura" font-size="36.0" fill="#3A5252" transform="matrix(1.00, 0.00, -0.00, -1.00, 118.2, 289.9)">t</text><text xml:space="preserve" font-family="Futura-CondensedMedium,Futura" font-size="36.0" fill="#3A5252" transform="matrix(1.00, 0.00, -0.00, -1.00, 126.2, 289.9)">t</text><text xml:space="preserve" font-family="Futura-CondensedMedium,Futura" font-size="36.0" fill="#3A5252" transform="matrix(1.00, 0.00, -0.00, -1.00, 134.2, 289.9)">p</text><text xml:space="preserve" font-family="Futura-CondensedMedium,Futura" font-size="36.0" fill="#3A5252" transform="matrix(1.00, 0.00, -0.00, -1.00, 148.4, 289.9)">:</text><text xml:space="preserve" font-family="Futura-CondensedMedium,Futura" font-size="36.0" fill="#3A5252" transform="matrix(1.00, 0.00, -0.00, -1.00, 155.9, 289.9)">/</text><text xml:space="preserve" font-family="Futura-CondensedMedium,Futura" font-size="36.0" fill="#3A5252" transform="matrix(1.00, 0.00, -0.00, -1.00, 172.1, 289.9)">/</text><text xml:space="preserve" font-family="Futura-CondensedMedium,Futura" font-size="36.0" fill="#3A5252" transform="matrix(1.00, 0.00, -0.00, -1.00, 188.3, 289.9)">g</text><text xml:space="preserve" font-family="Futura-CondensedMedium,Futura" font-size="36.0" fill="#3A5252" transform="matrix(1.00, 0.00, -0.00, -1.00, 202.5, 289.9)">i</text><text xml:space="preserve" font-family="Futura-CondensedMedium,Futura" font-size="36.0" fill="#3A5252" transform="matrix(1.00, 0.00, -0.00, -1.00, 209.7, 289.9)">t</text><text xml:space="preserve" font-family="Futura-CondensedMedium,Futura" font-size="36.0" fill="#3A5252" transform="matrix(1.00, 0.00, -0.00, -1.00, 217.7, 289.9)">h</text><text xml:space="preserve" font-family="Futura-CondensedMedium,Futura" font-size="36.0" fill="#3A5252" transform="matrix(1.00, 0.00, -0.00, -1.00, 232.2, 289.9)">u</text><text xml:space="preserve" font-family="Futura-CondensedMedium,Futura" font-size="36.0" fill="#3A5252" transform="matrix(1.00, 0.00, -0.00, -1.00, 246.9, 289.9)">b</text><text xml:space="preserve" font-family="Futura-CondensedMedium,Futura" font-size="36.0" fill="#3A5252" transform="matrix(1.00, 0.00, -0.00, -1.00, 261.1, 289.9)">.</text><text xml:space="preserve" font-family="Futura-CondensedMedium,Futura" font-size="36.0" fill="#3A5252" transform="matrix(1.00, 0.00, -0.00, -1.00, 268.5, 289.9)">c</text><text xml:space="preserve" font-family="Futura-CondensedMedium,Futura" font-size="36.0" fill="#3A5252" transform="matrix(1.00, 0.00, -0.00, -1.00, 278.8, 289.9)">o</text><text xml:space="preserve" font-family="Futura-CondensedMedium,Futura" font-size="36.0" fill="#3A5252" transform="matrix(1.00, 0.00, -0.00, -1.00, 292.7, 289.9)">m</text><text xml:space="preserve" font-family="Futura-CondensedMedium,Futura" font-size="36.0" fill="#3A5252" transform="matrix(1.00, 0.00, -0.00, -1.00, 314.6, 289.9)">/</text><text xml:space="preserve" font-family="Futura-CondensedMedium,Futura" font-size="36.0" fill="#3A5252" transform="matrix(1.00, 0.00, -0.00, -1.00, 330.9, 289.9)">d</text><text xml:space="preserve" font-family="Futura-CondensedMedium,Futura" font-size="36.0" fill="#3A5252" transform="matrix(1.00, 0.00, -0.00, -1.00, 345.0, 289.9)">a</text><text xml:space="preserve" font-family="Futura-CondensedMedium,Futura" font-size="36.0" fill="#3A5252" transform="matrix(1.00, 0.00, -0.00, -1.00, 359.2, 289.9)">n</text><text xml:space="preserve" font-family="Futura-CondensedMedium,Futura" font-size="36.0" fill="#3A5252" transform="matrix(1.00, 0.00, -0.00, -1.00, 373.8, 289.9)">i</text><text xml:space="preserve" font-family="Futura-CondensedMedium,Futura" font-size="36.0" fill="#3A5252" transform="matrix(1.00, 0.00, -0.00, -1.00, 380.9, 289.9)">e</text><text xml:space="preserve" font-family="Futura-CondensedMedium,Futura" font-size="36.0" fill="#3A5252" transform="matrix(1.00, 0.00, -0.00, -1.00, 394.2, 289.9)">l</text><text xml:space="preserve" font-family="Futura-CondensedMedium,Futura" font-size="36.0" fill="#3A5252" transform="matrix(1.00, 0.00, -0.00, -1.00, 401.4, 289.9)">b</text><text xml:space="preserve" font-family="Futura-CondensedMedium,Futura" font-size="36.0" fill="#3A5252" transform="matrix(1.00, 0.00, -0.00, -1.00, 415.4, 289.9)">w</text><text xml:space="preserve" font-family="Futura-CondensedMedium,Futura" font-size="36.0" fill="#3A5252" transform="matrix(1.00, 0.00, -0.00, -1.00, 433.5, 289.9)">a</text><text xml:space="preserve" font-family="Futura-CondensedMedium,Futura" font-size="36.0" fill="#3A5252" transform="matrix(1.00, 0.00, -0.00, -1.00, 447.7, 289.9)">t</text><text xml:space="preserve" font-family="Futura-CondensedMedium,Futura" font-size="36.0" fill="#3A5252" transform="matrix(1.00, 0.00, -0.00, -1.00, 455.7, 289.9)">s</text><text xml:space="preserve" font-family="Futura-CondensedMedium,Futura" font-size="36.0" fill="#3A5252" transform="matrix(1.00, 0.00, -0.00, -1.00, 466.3, 289.9)">o</text><text xml:space="preserve" font-family="Futura-CondensedMedium,Futura" font-size="36.0" fill="#3A5252" transform="matrix(1.00, 0.00, -0.00, -1.00, 480.1, 289.9)">n</text><text xml:space="preserve" font-family="Futura-CondensedMedium,Futura" font-size="36.0" fill="#3A5252" transform="matrix(1.00, 0.00, -0.00, -1.00, 494.8, 289.9)"> </text><g><clipPath id="clip0x6100004b2120"><path d="M 102.7 283.8 L 494.8 283.8 L 494.8 288.3 L 102.7 288.3 Z M 102.7 283.8 "></path></clipPath><g clip-path="url(#clip0x6100004b2120)"><path d="M 102.7 262.9 L 493.8 262.9 " fill="none" stroke="#3A5252" stroke-width="2.46" transform="matrix(1.00, 0.00, 0.00, -1.00, 1.0, 549.0)"></path></g></g><g><clipPath id="clip0x6100004b2360"><path d="M 9.0 210.1 L 88.3 210.1 L 88.3 253.3 L 9.0 253.3 Z M 9.0 210.1 "></path></clipPath><g clip-path="url(#clip0x6100004b2360)"><path d="M 107.0 -55.8 C 107.0 -55.8 101.5 -55.8 101.5 -55.8 C 101.5 -55.8 101.5 -3.8 101.5 -3.8 C 101.5 -3.8 107.0 -3.8 107.0 -3.8 " fill="none" stroke="#294242" stroke-width="1.00" transform="matrix(0.72, 0.00, 0.00, -0.72, 9.0, 210.1)"></path><path d="M 3.0 -29.8 C 3.0 -29.8 101.5 -29.8 101.5 -29.8 " fill="none" stroke="#294242" stroke-width="1.00" transform="matrix(0.72, 0.00, 0.00, -0.72, 9.0, 210.1)"></path></g></g><text xml:space="preserve" font-family="Futura-CondensedMedium,Futura" font-size="36.0" fill="#3A5252" transform="matrix(1.00, 0.00, -0.00, -1.00, 103.7, 217.9)">V</text><text xml:space="preserve" font-family="Futura-CondensedMedium,Futura" font-size="36.0" fill="#3A5252" transform="matrix(1.00, 0.00, -0.00, -1.00, 117.5, 217.9)">i</text><text xml:space="preserve" font-family="Futura-CondensedMedium,Futura" font-size="36.0" fill="#3A5252" transform="matrix(1.00, 0.00, -0.00, -1.00, 124.7, 217.9)">s</text><text xml:space="preserve" font-family="Futura-CondensedMedium,Futura" font-size="36.0" fill="#3A5252" transform="matrix(1.00, 0.00, -0.00, -1.00, 135.3, 217.9)">u</text><text xml:space="preserve" font-family="Futura-CondensedMedium,Futura" font-size="36.0" fill="#3A5252" transform="matrix(1.00, 0.00, -0.00, -1.00, 149.9, 217.9)">a</text><text xml:space="preserve" font-family="Futura-CondensedMedium,Futura" font-size="36.0" fill="#3A5252" transform="matrix(1.00, 0.00, -0.00, -1.00, 164.1, 217.9)">l</text><text xml:space="preserve" font-family="Futura-CondensedMedium,Futura" font-size="36.0" fill="#3A5252" transform="matrix(1.00, 0.00, -0.00, -1.00, 171.3, 217.9)"> </text><text xml:space="preserve" font-family="Futura-CondensedMedium,Futura" font-size="36.0" fill="#3A5252" transform="matrix(1.00, 0.00, -0.00, -1.00, 178.7, 217.9)">c</text><text xml:space="preserve" font-family="Futura-CondensedMedium,Futura" font-size="36.0" fill="#3A5252" transform="matrix(1.00, 0.00, -0.00, -1.00, 189.0, 217.9)">o</text><text xml:space="preserve" font-family="Futura-CondensedMedium,Futura" font-size="36.0" fill="#3A5252" transform="matrix(1.00, 0.00, -0.00, -1.00, 202.9, 217.9)">n</text><text xml:space="preserve" font-family="Futura-CondensedMedium,Futura" font-size="36.0" fill="#3A5252" transform="matrix(1.00, 0.00, -0.00, -1.00, 217.4, 217.9)">s</text><text xml:space="preserve" font-family="Futura-CondensedMedium,Futura" font-size="36.0" fill="#3A5252" transform="matrix(1.00, 0.00, -0.00, -1.00, 228.0, 217.9)">i</text><text xml:space="preserve" font-family="Futura-CondensedMedium,Futura" font-size="36.0" fill="#3A5252" transform="matrix(1.00, 0.00, -0.00, -1.00, 235.1, 217.9)">s</text><text xml:space="preserve" font-family="Futura-CondensedMedium,Futura" font-size="36.0" fill="#3A5252" transform="matrix(1.00, 0.00, -0.00, -1.00, 245.9, 217.9)">t</text><text xml:space="preserve" font-family="Futura-CondensedMedium,Futura" font-size="36.0" fill="#3A5252" transform="matrix(1.00, 0.00, -0.00, -1.00, 253.9, 217.9)">e</text><text xml:space="preserve" font-family="Futura-CondensedMedium,Futura" font-size="36.0" fill="#3A5252" transform="matrix(1.00, 0.00, -0.00, -1.00, 267.1, 217.9)">n</text><text xml:space="preserve" font-family="Futura-CondensedMedium,Futura" font-size="36.0" fill="#3A5252" transform="matrix(1.00, 0.00, -0.00, -1.00, 281.7, 217.9)">c</text><text xml:space="preserve" font-family="Futura-CondensedMedium,Futura" font-size="36.0" fill="#3A5252" transform="matrix(1.00, 0.00, -0.00, -1.00, 292.0, 217.9)">y</text></g></svg>