<?xml version="1.0" encoding="UTF-8" standalone="no"?><svg xmlns="http://www.w3.org/2000/svg" xmlns:xlink="http://www.w3.org/1999/xlink" clip-rule="evenodd" stroke-miterlimit="10" viewBox="0 0 1024 768"><desc>SVG generated by Keynote</desc><defs></defs><g transform="matrix(1.00, 0.00, -0.00, -1.00, 0.0, 768.0)"><g><clipPath id="clip0x600000ab03e0"><path d="M 0.0 768.0 L 1024.0 768.0 L 1024.0 0.0 L 0.0 0.0 Z M 0.0 768.0 "></path></clipPath><g clip-path="url(#clip0x600000ab03e0)"><image xlink:href="../../8D3ED16D-0AC6-4687-B857-35986CF62247/assets/36A78218EC91664F9E8CE4EC9C0D9D0B.png" width="1024.00" height="768.00" transform="matrix(1.00, 0.00, -0.00, -1.00, 0.0, 768.0)"></image></g></g><text xml:space="preserve" font-family="Futura-CondensedMedium,Futura" font-size="85.0" fill="#FEFFFF" transform="matrix(1.00, 0.00, -0.00, -1.00, 104.0, 636.1)">C</text><text xml:space="preserve" font-family="Futura-CondensedMedium,Futura" font-size="85.0" fill="#FEFFFF" transform="matrix(1.00, 0.00, -0.00, -1.00, 136.4, 636.1)">o</text><text xml:space="preserve" font-family="Futura-CondensedMedium,Futura" font-size="85.0" fill="#FEFFFF" transform="matrix(1.00, 0.00, -0.00, -1.00, 169.2, 636.1)">n</text><text xml:space="preserve" font-family="Futura-CondensedMedium,Futura" font-size="85.0" fill="#FEFFFF" transform="matrix(1.00, 0.00, -0.00, -1.00, 203.6, 636.1)">c</text><text xml:space="preserve" font-family="Futura-CondensedMedium,Futura" font-size="85.0" fill="#FEFFFF" transform="matrix(1.00, 0.00, -0.00, -1.00, 227.8, 636.1)">l</text><text xml:space="preserve" font-family="Futura-CondensedMedium,Futura" font-size="85.0" fill="#FEFFFF" transform="matrix(1.00, 0.00, -0.00, -1.00, 244.8, 636.1)">u</text><text xml:space="preserve" font-family="Futura-CondensedMedium,Futura" font-size="85.0" fill="#FEFFFF" transform="matrix(1.00, 0.00, -0.00, -1.00, 279.4, 636.1)">s</text><text xml:space="preserve" font-family="Futura-CondensedMedium,Futura" font-size="85.0" fill="#FEFFFF" transform="matrix(1.00, 0.00, -0.00, -1.00, 304.3, 636.1)">i</text><text xml:space="preserve" font-family="Futura-CondensedMedium,Futura" font-size="85.0" fill="#FEFFFF" transform="matrix(1.00, 0.00, -0.00, -1.00, 321.2, 636.1)">o</text><text xml:space="preserve" font-family="Futura-CondensedMedium,Futura" font-size="85.0" fill="#FEFFFF" transform="matrix(1.00, 0.00, -0.00, -1.00, 354.0, 636.1)">n</text><text xml:space="preserve" font-family="Futura-CondensedMedium,Futura" font-size="85.0" fill="#FEFFFF" transform="matrix(1.00, 0.00, -0.00, -1.00, 388.4, 636.1)">s</text><text xml:space="preserve" font-family="Futura-CondensedMedium,Futura" font-size="85.0" fill="#FEFFFF" transform="matrix(1.00, 0.00, -0.00, -1.00, 413.3, 636.1)"> </text><text xml:space="preserve" font-family="Futura-CondensedMedium,Futura" font-size="85.0" fill="#FEFFFF" transform="matrix(1.00, 0.00, -0.00, -1.00, 430.9, 636.1)">a</text><text xml:space="preserve" font-family="Futura-CondensedMedium,Futura" font-size="85.0" fill="#FEFFFF" transform="matrix(1.00, 0.00, -0.00, -1.00, 464.4, 636.1)">n</text><text xml:space="preserve" font-family="Futura-CondensedMedium,Futura" font-size="85.0" fill="#FEFFFF" transform="matrix(1.00, 0.00, -0.00, -1.00, 498.8, 636.1)">d</text><text xml:space="preserve" font-family="Futura-CondensedMedium,Futura" font-size="85.0" fill="#FEFFFF" transform="matrix(1.00, 0.00, -0.00, -1.00, 532.3, 636.1)"> </text><text xml:space="preserve" font-family="Futura-CondensedMedium,Futura" font-size="85.0" fill="#FEFFFF" transform="matrix(1.00, 0.00, -0.00, -1.00, 549.9, 636.1)">F</text><text xml:space="preserve" font-family="Futura-CondensedMedium,Futura" font-size="85.0" fill="#FEFFFF" transform="matrix(1.00, 0.00, -0.00, -1.00, 579.0, 636.1)">u</text><text xml:space="preserve" font-family="Futura-CondensedMedium,Futura" font-size="85.0" fill="#FEFFFF" transform="matrix(1.00, 0.00, -0.00, -1.00, 613.6, 636.1)">t</text><text xml:space="preserve" font-family="Futura-CondensedMedium,Futura" font-size="85.0" fill="#FEFFFF" transform="matrix(1.00, 0.00, -0.00, -1.00, 632.5, 636.1)">u</text><text xml:space="preserve" font-family="Futura-CondensedMedium,Futura" font-size="85.0" fill="#FEFFFF" transform="matrix(1.00, 0.00, -0.00, -1.00, 667.0, 636.1)">r</text><text xml:space="preserve" font-family="Futura-CondensedMedium,Futura" font-size="85.0" fill="#FEFFFF" transform="matrix(1.00, 0.00, -0.00, -1.00, 690.0, 636.1)">e</text><text xml:space="preserve" font-family="Futura-CondensedMedium,Futura" font-size="85.0" fill="#FEFFFF" transform="matrix(1.00, 0.00, -0.00, -1.00, 721.3, 636.1)"> </text><text xml:space="preserve" font-family="Futura-CondensedMedium,Futura" font-size="85.0" fill="#FEFFFF" transform="matrix(1.00, 0.00, -0.00, -1.00, 738.9, 636.1)">W</text><text xml:space="preserve" font-family="Futura-CondensedMedium,Futura" font-size="85.0" fill="#FEFFFF" transform="matrix(1.00, 0.00, -0.00, -1.00, 787.8, 636.1)">o</text><text xml:space="preserve" font-family="Futura-CondensedMedium,Futura" font-size="85.0" fill="#FEFFFF" transform="matrix(1.00, 0.00, -0.00, -1.00, 820.6, 636.1)">r</text><text xml:space="preserve" font-family="Futura-CondensedMedium,Futura" font-size="85.0" fill="#FEFFFF" transform="matrix(1.00, 0.00, -0.00, -1.00, 843.5, 636.1)">k</text><g><clipPath id="clip0x6100004b3e00"><path d="M 9.0 390.1 L 88.3 390.1 L 88.3 433.3 L 9.0 433.3 Z M 9.0 390.1 "></path></clipPath><g clip-path="url(#clip0x6100004b3e00)"><path d="M 107.0 -55.8 C 107.0 -55.8 101.5 -55.8 101.5 -55.8 C 101.5 -55.8 101.5 -3.8 101.5 -3.8 C 101.5 -3.8 107.0 -3.8 107.0 -3.8 " fill="none" stroke="#294242" stroke-width="1.00" transform="matrix(0.72, 0.00, 0.00, -0.72, 9.0, 390.1)"></path><path d="M 3.0 -29.8 C 3.0 -29.8 101.5 -29.8 101.5 -29.8 " fill="none" stroke="#294242" stroke-width="1.00" transform="matrix(0.72, 0.00, 0.00, -0.72, 9.0, 390.1)"></path></g></g><text xml:space="preserve" font-family="Futura-CondensedMedium,Futura" font-size="36.0" fill="#3A5252" transform="matrix(1.00, 0.00, -0.00, -1.00, 103.7, 397.9)">h</text><text xml:space="preserve" font-family="Futura-CondensedMedium,Futura" font-size="36.0" fill="#3A5252" transform="matrix(1.00, 0.00, -0.00, -1.00, 118.2, 397.9)">t</text><text xml:space="preserve" font-family="Futura-CondensedMedium,Futura" font-size="36.0" fill="#3A5252" transform="matrix(1.00, 0.00, -0.00, -1.00, 126.2, 397.9)">t</text><text xml:space="preserve" font-family="Futura-CondensedMedium,Futura" font-size="36.0" fill="#3A5252" transform="matrix(1.00, 0.00, -0.00, -1.00, 134.2, 397.9)">p</text><text xml:space="preserve" font-family="Futura-CondensedMedium,Futura" font-size="36.0" fill="#3A5252" transform="matrix(1.00, 0.00, -0.00, -1.00, 148.4, 397.9)">:</text><text xml:space="preserve" font-family="Futura-CondensedMedium,Futura" font-size="36.0" fill="#3A5252" transform="matrix(1.00, 0.00, -0.00, -1.00, 155.9, 397.9)">/</text><text xml:space="preserve" font-family="Futura-CondensedMedium,Futura" font-size="36.0" fill="#3A5252" transform="matrix(1.00, 0.00, -0.00, -1.00, 172.1, 397.9)">/</text><text xml:space="preserve" font-family="Futura-CondensedMedium,Futura" font-size="36.0" fill="#3A5252" transform="matrix(1.00, 0.00, -0.00, -1.00, 188.3, 397.9)">g</text><text xml:space="preserve" font-family="Futura-CondensedMedium,Futura" font-size="36.0" fill="#3A5252" transform="matrix(1.00, 0.00, -0.00, -1.00, 202.5, 397.9)">o</text><text xml:space="preserve" font-family="Futura-CondensedMedium,Futura" font-size="36.0" fill="#3A5252" transform="matrix(1.00, 0.00, -0.00, -1.00, 216.4, 397.9)">a</text><text xml:space="preserve" font-family="Futura-CondensedMedium,Futura" font-size="36.0" fill="#3A5252" transform="matrix(1.00, 0.00, -0.00, -1.00, 230.6, 397.9)">l</text><text xml:space="preserve" font-family="Futura-CondensedMedium,Futura" font-size="36.0" fill="#3A5252" transform="matrix(1.00, 0.00, -0.00, -1.00, 237.8, 397.9)">.</text><text xml:space="preserve" font-family="Futura-CondensedMedium,Futura" font-size="36.0" fill="#3A5252" transform="matrix(1.00, 0.00, -0.00, -1.00, 245.2, 397.9)">l</text><text xml:space="preserve" font-family="Futura-CondensedMedium,Futura" font-size="36.0" fill="#3A5252" transform="matrix(1.00, 0.00, -0.00, -1.00, 252.6, 397.9)">y</text><text xml:space="preserve" font-family="Futura-CondensedMedium,Futura" font-size="36.0" fill="#3A5252" transform="matrix(1.00, 0.00, -0.00, -1.00, 265.9, 397.9)">/</text><text xml:space="preserve" font-family="Futura-CondensedMedium,Futura" font-size="36.0" fill="#3A5252" transform="matrix(1.00, 0.00, -0.00, -1.00, 282.1, 397.9)"> </text><g><clipPath id="clip0x6100004b4700"><path d="M 102.7 391.8 L 265.9 391.8 L 265.9 396.3 L 102.7 396.3 Z M 102.7 391.8 "></path></clipPath><g clip-path="url(#clip0x6100004b4700)"><path d="M 102.7 154.9 L 264.9 154.9 " fill="none" stroke="#3A5252" stroke-width="2.46" transform="matrix(1.00, 0.00, 0.00, -1.00, 1.0, 549.0)"></path></g></g><g><clipPath id="clip0x6100004b4940"><path d="M 9.0 318.1 L 88.3 318.1 L 88.3 361.3 L 9.0 361.3 Z M 9.0 318.1 "></path></clipPath><g clip-path="url(#clip0x6100004b4940)"><path d="M 107.0 -55.8 C 107.0 -55.8 101.5 -55.8 101.5 -55.8 C 101.5 -55.8 101.5 -3.8 101.5 -3.8 C 101.5 -3.8 107.0 -3.8 107.0 -3.8 " fill="none" stroke="#294242" stroke-width="1.00" transform="matrix(0.72, 0.00, 0.00, -0.72, 9.0, 318.1)"></path><path d="M 3.0 -29.8 C 3.0 -29.8 101.5 -29.8 101.5 -29.8 " fill="none" stroke="#294242" stroke-width="1.00" transform="matrix(0.72, 0.00, 0.00, -0.72, 9.0, 318.1)"></path></g></g><text xml:space="preserve" font-family="Futura-CondensedMedium,Futura" font-size="36.0" fill="#3A5252" transform="matrix(1.00, 0.00, -0.00, -1.00, 103.7, 325.9)">h</text><text xml:space="preserve" font-family="Futura-CondensedMedium,Futura" font-size="36.0" fill="#3A5252" transform="matrix(1.00, 0.00, -0.00, -1.00, 118.2, 325.9)">t</text><text xml:space="preserve" font-family="Futura-CondensedMedium,Futura" font-size="36.0" fill="#3A5252" transform="matrix(1.00, 0.00, -0.00, -1.00, 126.2, 325.9)">t</text><text xml:space="preserve" font-family="Futura-CondensedMedium,Futura" font-size="36.0" fill="#3A5252" transform="matrix(1.00, 0.00, -0.00, -1.00, 134.2, 325.9)">p</text><text xml:space="preserve" font-family="Futura-CondensedMedium,Futura" font-size="36.0" fill="#3A5252" transform="matrix(1.00, 0.00, -0.00, -1.00, 148.4, 325.9)">:</text><text xml:space="preserve" font-family="Futura-CondensedMedium,Futura" font-size="36.0" fill="#3A5252" transform="matrix(1.00, 0.00, -0.00, -1.00, 155.9, 325.9)">/</text><text xml:space="preserve" font-family="Futura-CondensedMedium,Futura" font-size="36.0" fill="#3A5252" transform="matrix(1.00, 0.00, -0.00, -1.00, 172.1, 325.9)">/</text><text xml:space="preserve" font-family="Futura-CondensedMedium,Futura" font-size="36.0" fill="#3A5252" transform="matrix(1.00, 0.00, -0.00, -1.00, 188.3, 325.9)">g</text><text xml:space="preserve" font-family="Futura-CondensedMedium,Futura" font-size="36.0" fill="#3A5252" transform="matrix(1.00, 0.00, -0.00, -1.00, 202.5, 325.9)">i</text><text xml:space="preserve" font-family="Futura-CondensedMedium,Futura" font-size="36.0" fill="#3A5252" transform="matrix(1.00, 0.00, -0.00, -1.00, 209.7, 325.9)">t</text><text xml:space="preserve" font-family="Futura-CondensedMedium,Futura" font-size="36.0" fill="#3A5252" transform="matrix(1.00, 0.00, -0.00, -1.00, 217.7, 325.9)">h</text><text xml:space="preserve" font-family="Futura-CondensedMedium,Futura" font-size="36.0" fill="#3A5252" transform="matrix(1.00, 0.00, -0.00, -1.00, 232.2, 325.9)">u</text><text xml:space="preserve" font-family="Futura-CondensedMedium,Futura" font-size="36.0" fill="#3A5252" transform="matrix(1.00, 0.00, -0.00, -1.00, 246.9, 325.9)">b</text><text xml:space="preserve" font-family="Futura-CondensedMedium,Futura" font-size="36.0" fill="#3A5252" transform="matrix(1.00, 0.00, -0.00, -1.00, 261.1, 325.9)">.</text><text xml:space="preserve" font-family="Futura-CondensedMedium,Futura" font-size="36.0" fill="#3A5252" transform="matrix(1.00, 0.00, -0.00, -1.00, 268.5, 325.9)">c</text><text xml:space="preserve" font-family="Futura-CondensedMedium,Futura" font-size="36.0" fill="#3A5252" transform="matrix(1.00, 0.00, -0.00, -1.00, 278.8, 325.9)">o</text><text xml:space="preserve" font-family="Futura-CondensedMedium,Futura" font-size="36.0" fill="#3A5252" transform="matrix(1.00, 0.00, -0.00, -1.00, 292.7, 325.9)">m</text><text xml:space="preserve" font-family="Futura-CondensedMedium,Futura" font-size="36.0" fill="#3A5252" transform="matrix(1.00, 0.00, -0.00, -1.00, 314.6, 325.9)">/</text><text xml:space="preserve" font-family="Futura-CondensedMedium,Futura" font-size="36.0" fill="#3A5252" transform="matrix(1.00, 0.00, -0.00, -1.00, 330.9, 325.9)">d</text><text xml:space="preserve" font-family="Futura-CondensedMedium,Futura" font-size="36.0" fill="#3A5252" transform="matrix(1.00, 0.00, -0.00, -1.00, 345.0, 325.9)">a</text><text xml:space="preserve" font-family="Futura-CondensedMedium,Futura" font-size="36.0" fill="#3A5252" transform="matrix(1.00, 0.00, -0.00, -1.00, 359.2, 325.9)">n</text><text xml:space="preserve" font-family="Futura-CondensedMedium,Futura" font-size="36.0" fill="#3A5252" transform="matrix(1.00, 0.00, -0.00, -1.00, 373.8, 325.9)">i</text><text xml:space="preserve" font-family="Futura-CondensedMedium,Futura" font-size="36.0" fill="#3A5252" transform="matrix(1.00, 0.00, -0.00, -1.00, 380.9, 325.9)">e</text><text xml:space="preserve" font-family="Futura-CondensedMedium,Futura" font-size="36.0" fill="#3A5252" transform="matrix(1.00, 0.00, -0.00, -1.00, 394.2, 325.9)">l</text><text xml:space="preserve" font-family="Futura-CondensedMedium,Futura" font-size="36.0" fill="#3A5252" transform="matrix(1.00, 0.00, -0.00, -1.00, 401.4, 325.9)">b</text><text xml:space="preserve" font-family="Futura-CondensedMedium,Futura" font-size="36.0" fill="#3A5252" transform="matrix(1.00, 0.00, -0.00, -1.00, 415.4, 325.9)">w</text><text xml:space="preserve" font-family="Futura-CondensedMedium,Futura" font-size="36.0" fill="#3A5252" transform="matrix(1.00, 0.00, -0.00, -1.00, 433.5, 325.9)">a</text><text xml:space="preserve" font-family="Futura-CondensedMedium,Futura" font-size="36.0" fill="#3A5252" transform="matrix(1.00, 0.00, -0.00, -1.00, 447.7, 325.9)">t</text><text xml:space="preserve" font-family="Futura-CondensedMedium,Futura" font-size="36.0" fill="#3A5252" transform="matrix(1.00, 0.00, -0.00, -1.00, 455.7, 325.9)">s</text><text xml:space="preserve" font-family="Futura-CondensedMedium,Futura" font-size="36.0" fill="#3A5252" transform="matrix(1.00, 0.00, -0.00, -1.00, 466.3, 325.9)">o</text><text xml:space="preserve" font-family="Futura-CondensedMedium,Futura" font-size="36.0" fill="#3A5252" transform="matrix(1.00, 0.00, -0.00, -1.00, 480.1, 325.9)">n</text><text xml:space="preserve" font-family="Futura-CondensedMedium,Futura" font-size="36.0" fill="#3A5252" transform="matrix(1.00, 0.00, -0.00, -1.00, 494.8, 325.9)"> </text><g><clipPath id="clip0x6100004b5840"><path d="M 102.7 319.8 L 494.8 319.8 L 494.8 324.3 L 102.7 324.3 Z M 102.7 319.8 "></path></clipPath><g clip-path="url(#clip0x6100004b5840)"><path d="M 102.7 226.9 L 493.8 226.9 " fill="none" stroke="#3A5252" stroke-width="2.46" transform="matrix(1.00, 0.00, 0.00, -1.00, 1.0, 549.0)"></path></g></g><g><clipPath id="clip0x6100004b5a80"><path d="M 9.0 246.1 L 88.3 246.1 L 88.3 289.3 L 9.0 289.3 Z M 9.0 246.1 "></path></clipPath><g clip-path="url(#clip0x6100004b5a80)"><path d="M 107.0 -55.8 C 107.0 -55.8 101.5 -55.8 101.5 -55.8 C 101.5 -55.8 101.5 -3.8 101.5 -3.8 C 101.5 -3.8 107.0 -3.8 107.0 -3.8 " fill="none" stroke="#294242" stroke-width="1.00" transform="matrix(0.72, 0.00, 0.00, -0.72, 9.0, 246.1)"></path><path d="M 3.0 -29.8 C 3.0 -29.8 101.5 -29.8 101.5 -29.8 " fill="none" stroke="#294242" stroke-width="1.00" transform="matrix(0.72, 0.00, 0.00, -0.72, 9.0, 246.1)"></path></g></g><text xml:space="preserve" font-family="Futura-CondensedMedium,Futura" font-size="36.0" fill="#3A5252" transform="matrix(1.00, 0.00, -0.00, -1.00, 103.7, 253.9)">V</text><text xml:space="preserve" font-family="Futura-CondensedMedium,Futura" font-size="36.0" fill="#3A5252" transform="matrix(1.00, 0.00, -0.00, -1.00, 117.5, 253.9)">i</text><text xml:space="preserve" font-family="Futura-CondensedMedium,Futura" font-size="36.0" fill="#3A5252" transform="matrix(1.00, 0.00, -0.00, -1.00, 124.7, 253.9)">s</text><text xml:space="preserve" font-family="Futura-CondensedMedium,Futura" font-size="36.0" fill="#3A5252" transform="matrix(1.00, 0.00, -0.00, -1.00, 135.3, 253.9)">u</text><text xml:space="preserve" font-family="Futura-CondensedMedium,Futura" font-size="36.0" fill="#3A5252" transform="matrix(1.00, 0.00, -0.00, -1.00, 149.9, 253.9)">a</text><text xml:space="preserve" font-family="Futura-CondensedMedium,Futura" font-size="36.0" fill="#3A5252" transform="matrix(1.00, 0.00, -0.00, -1.00, 164.1, 253.9)">l</text><text xml:space="preserve" font-family="Futura-CondensedMedium,Futura" font-size="36.0" fill="#3A5252" transform="matrix(1.00, 0.00, -0.00, -1.00, 171.3, 253.9)"> </text><text xml:space="preserve" font-family="Futura-CondensedMedium,Futura" font-size="36.0" fill="#3A5252" transform="matrix(1.00, 0.00, -0.00, -1.00, 178.7, 253.9)">c</text><text xml:space="preserve" font-family="Futura-CondensedMedium,Futura" font-size="36.0" fill="#3A5252" transform="matrix(1.00, 0.00, -0.00, -1.00, 189.0, 253.9)">o</text><text xml:space="preserve" font-family="Futura-CondensedMedium,Futura" font-size="36.0" fill="#3A5252" transform="matrix(1.00, 0.00, -0.00, -1.00, 202.9, 253.9)">n</text><text xml:space="preserve" font-family="Futura-CondensedMedium,Futura" font-size="36.0" fill="#3A5252" transform="matrix(1.00, 0.00, -0.00, -1.00, 217.4, 253.9)">s</text><text xml:space="preserve" font-family="Futura-CondensedMedium,Futura" font-size="36.0" fill="#3A5252" transform="matrix(1.00, 0.00, -0.00, -1.00, 228.0, 253.9)">i</text><text xml:space="preserve" font-family="Futura-CondensedMedium,Futura" font-size="36.0" fill="#3A5252" transform="matrix(1.00, 0.00, -0.00, -1.00, 235.1, 253.9)">s</text><text xml:space="preserve" font-family="Futura-CondensedMedium,Futura" font-size="36.0" fill="#3A5252" transform="matrix(1.00, 0.00, -0.00, -1.00, 245.9, 253.9)">t</text><text xml:space="preserve" font-family="Futura-CondensedMedium,Futura" font-size="36.0" fill="#3A5252" transform="matrix(1.00, 0.00, -0.00, -1.00, 253.9, 253.9)">e</text><text xml:space="preserve" font-family="Futura-CondensedMedium,Futura" font-size="36.0" fill="#3A5252" transform="matrix(1.00, 0.00, -0.00, -1.00, 267.1, 253.9)">n</text><text xml:space="preserve" font-family="Futura-CondensedMedium,Futura" font-size="36.0" fill="#3A5252" transform="matrix(1.00, 0.00, -0.00, -1.00, 281.7, 253.9)">c</text><text xml:space="preserve" font-family="Futura-CondensedMedium,Futura" font-size="36.0" fill="#3A5252" transform="matrix(1.00, 0.00, -0.00, -1.00, 292.0, 253.9)">y</text><text xml:space="preserve" font-family="Futura-CondensedMedium,Futura" font-size="36.0" fill="#3A5252" transform="matrix(1.00, 0.00, -0.00, -1.00, 305.2, 253.9)"> </text><g><clipPath id="clip0x6100004b64a0"><path d="M 9.0 174.1 L 88.3 174.1 L 88.3 217.3 L 9.0 217.3 Z M 9.0 174.1 "></path></clipPath><g clip-path="url(#clip0x6100004b64a0)"><path d="M 107.0 -55.8 C 107.0 -55.8 101.5 -55.8 101.5 -55.8 C 101.5 -55.8 101.5 -3.8 101.5 -3.8 C 101.5 -3.8 107.0 -3.8 107.0 -3.8 " fill="none" stroke="#294242" stroke-width="1.00" transform="matrix(0.72, 0.00, 0.00, -0.72, 9.0, 174.1)"></path><path d="M 3.0 -29.8 C 3.0 -29.8 101.5 -29.8 101.5 -29.8 " fill="none" stroke="#294242" stroke-width="1.00" transform="matrix(0.72, 0.00, 0.00, -0.72, 9.0, 174.1)"></path></g></g><text xml:space="preserve" font-family="Futura-CondensedMedium,Futura" font-size="36.0" fill="#3A5252" transform="matrix(1.00, 0.00, -0.00, -1.00, 103.7, 181.9)">I</text><text xml:space="preserve" font-family="Futura-CondensedMedium,Futura" font-size="36.0" fill="#3A5252" transform="matrix(1.00, 0.00, -0.00, -1.00, 111.5, 181.9)">n</text><text xml:space="preserve" font-family="Futura-CondensedMedium,Futura" font-size="36.0" fill="#3A5252" transform="matrix(1.00, 0.00, -0.00, -1.00, 126.1, 181.9)">s</text><text xml:space="preserve" font-family="Futura-CondensedMedium,Futura" font-size="36.0" fill="#3A5252" transform="matrix(1.00, 0.00, -0.00, -1.00, 136.8, 181.9)">t</text><text xml:space="preserve" font-family="Futura-CondensedMedium,Futura" font-size="36.0" fill="#3A5252" transform="matrix(1.00, 0.00, -0.00, -1.00, 144.8, 181.9)">r</text><text xml:space="preserve" font-family="Futura-CondensedMedium,Futura" font-size="36.0" fill="#3A5252" transform="matrix(1.00, 0.00, -0.00, -1.00, 154.5, 181.9)">u</text><text xml:space="preserve" font-family="Futura-CondensedMedium,Futura" font-size="36.0" fill="#3A5252" transform="matrix(1.00, 0.00, -0.00, -1.00, 169.1, 181.9)">c</text><text xml:space="preserve" font-family="Futura-CondensedMedium,Futura" font-size="36.0" fill="#3A5252" transform="matrix(1.00, 0.00, -0.00, -1.00, 179.4, 181.9)">t</text><text xml:space="preserve" font-family="Futura-CondensedMedium,Futura" font-size="36.0" fill="#3A5252" transform="matrix(1.00, 0.00, -0.00, -1.00, 187.4, 181.9)">i</text><text xml:space="preserve" font-family="Futura-CondensedMedium,Futura" font-size="36.0" fill="#3A5252" transform="matrix(1.00, 0.00, -0.00, -1.00, 194.6, 181.9)">o</text><text xml:space="preserve" font-family="Futura-CondensedMedium,Futura" font-size="36.0" fill="#3A5252" transform="matrix(1.00, 0.00, -0.00, -1.00, 208.4, 181.9)">n</text><text xml:space="preserve" font-family="Futura-CondensedMedium,Futura" font-size="36.0" fill="#3A5252" transform="matrix(1.00, 0.00, -0.00, -1.00, 223.0, 181.9)">s</text><text xml:space="preserve" font-family="Futura-CondensedMedium,Futura" font-size="36.0" fill="#3A5252" transform="matrix(1.00, 0.00, -0.00, -1.00, 233.6, 181.9)"> </text><text xml:space="preserve" font-family="Futura-CondensedMedium,Futura" font-size="36.0" fill="#3A5252" transform="matrix(1.00, 0.00, -0.00, -1.00, 241.0, 181.9)">-</text><text xml:space="preserve" font-family="Futura-CondensedMedium,Futura" font-size="36.0" fill="#3A5252" transform="matrix(1.00, 0.00, -0.00, -1.00, 247.4, 181.9)"> </text><text xml:space="preserve" font-family="Futura-CondensedMedium,Futura" font-size="36.0" fill="#3A5252" transform="matrix(1.00, 0.00, -0.00, -1.00, 254.9, 181.9)">w</text><text xml:space="preserve" font-family="Futura-CondensedMedium,Futura" font-size="36.0" fill="#3A5252" transform="matrix(1.00, 0.00, -0.00, -1.00, 272.9, 181.9)">e</text><text xml:space="preserve" font-family="Futura-CondensedMedium,Futura" font-size="36.0" fill="#3A5252" transform="matrix(1.00, 0.00, -0.00, -1.00, 286.2, 181.9)">b</text><text xml:space="preserve" font-family="Futura-CondensedMedium,Futura" font-size="36.0" fill="#3A5252" transform="matrix(1.00, 0.00, -0.00, -1.00, 300.4, 181.9)">s</text><text xml:space="preserve" font-family="Futura-CondensedMedium,Futura" font-size="36.0" fill="#3A5252" transform="matrix(1.00, 0.00, -0.00, -1.00, 311.0, 181.9)">i</text><text xml:space="preserve" font-family="Futura-CondensedMedium,Futura" font-size="36.0" fill="#3A5252" transform="matrix(1.00, 0.00, -0.00, -1.00, 318.1, 181.9)">t</text><text xml:space="preserve" font-family="Futura-CondensedMedium,Futura" font-size="36.0" fill="#3A5252" transform="matrix(1.00, 0.00, -0.00, -1.00, 326.1, 181.9)">e</text><text xml:space="preserve" font-family="Futura-CondensedMedium,Futura" font-size="36.0" fill="#3A5252" transform="matrix(1.00, 0.00, -0.00, -1.00, 339.3, 181.9)"> </text><text xml:space="preserve" font-family="Futura-CondensedMedium,Futura" font-size="36.0" fill="#3A5252" transform="matrix(1.00, 0.00, -0.00, -1.00, 346.8, 181.9)">a</text><text xml:space="preserve" font-family="Futura-CondensedMedium,Futura" font-size="36.0" fill="#3A5252" transform="matrix(1.00, 0.00, -0.00, -1.00, 361.0, 181.9)">n</text><text xml:space="preserve" font-family="Futura-CondensedMedium,Futura" font-size="36.0" fill="#3A5252" transform="matrix(1.00, 0.00, -0.00, -1.00, 375.5, 181.9)">d</text><text xml:space="preserve" font-family="Futura-CondensedMedium,Futura" font-size="36.0" fill="#3A5252" transform="matrix(1.00, 0.00, -0.00, -1.00, 389.7, 181.9)"> </text><text xml:space="preserve" font-family="Futura-CondensedMedium,Futura" font-size="36.0" fill="#3A5252" transform="matrix(1.00, 0.00, -0.00, -1.00, 397.2, 181.9)">e</text><text xml:space="preserve" font-family="Futura-CondensedMedium,Futura" font-size="36.0" fill="#3A5252" transform="matrix(1.00, 0.00, -0.00, -1.00, 410.4, 181.9)">m</text><text xml:space="preserve" font-family="Futura-CondensedMedium,Futura" font-size="36.0" fill="#3A5252" transform="matrix(1.00, 0.00, -0.00, -1.00, 432.4, 181.9)">a</text><text xml:space="preserve" font-family="Futura-CondensedMedium,Futura" font-size="36.0" fill="#3A5252" transform="matrix(1.00, 0.00, -0.00, -1.00, 446.6, 181.9)">i</text><text xml:space="preserve" font-family="Futura-CondensedMedium,Futura" font-size="36.0" fill="#3A5252" transform="matrix(1.00, 0.00, -0.00, -1.00, 453.8, 181.9)">l</text></g></svg>