<?xml version="1.0" encoding="UTF-8" standalone="no"?><svg xmlns="http://www.w3.org/2000/svg" xmlns:xlink="http://www.w3.org/1999/xlink" clip-rule="evenodd" stroke-miterlimit="10" viewBox="0 0 1024 768"><desc>SVG generated by Keynote</desc><defs></defs><g transform="matrix(1.00, 0.00, -0.00, -1.00, 0.0, 768.0)"><g><clipPath id="clip0x600000ab4b20"><path d="M 0.0 768.0 L 1024.0 768.0 L 1024.0 0.0 L 0.0 0.0 Z M 0.0 768.0 "></path></clipPath><g clip-path="url(#clip0x600000ab4b20)"><image xlink:href="../../8D3ED16D-0AC6-4687-B857-35986CF62247/assets/36A78218EC91664F9E8CE4EC9C0D9D0B.png" width="1024.00" height="768.00" transform="matrix(1.00, 0.00, -0.00, -1.00, 0.0, 768.0)"></image></g></g><text xml:space="preserve" font-family="Futura-CondensedMedium,Futura" font-size="85.0" fill="#FEFFFF" transform="matrix(1.00, 0.00, -0.00, -1.00, 104.0, 636.1)">C</text><text xml:space="preserve" font-family="Futura-CondensedMedium,Futura" font-size="85.0" fill="#FEFFFF" transform="matrix(1.00, 0.00, -0.00, -1.00, 136.4, 636.1)">o</text><text xml:space="preserve" font-family="Futura-CondensedMedium,Futura" font-size="85.0" fill="#FEFFFF" transform="matrix(1.00, 0.00, -0.00, -1.00, 169.2, 636.1)">n</text><text xml:space="preserve" font-family="Futura-CondensedMedium,Futura" font-size="85.0" fill="#FEFFFF" transform="matrix(1.00, 0.00, -0.00, -1.00, 203.6, 636.1)">c</text><text xml:space="preserve" font-family="Futura-CondensedMedium,Futura" font-size="85.0" fill="#FEFFFF" transform="matrix(1.00, 0.00, -0.00, -1.00, 227.8, 636.1)">l</text><text xml:space="preserve" font-family="Futura-CondensedMedium,Futura" font-size="85.0" fill="#FEFFFF" transform="matrix(1.00, 0.00, -0.00, -1.00, 244.8, 636.1)">u</text><text xml:space="preserve" font-family="Futura-CondensedMedium,Futura" font-size="85.0" fill="#FEFFFF" transform="matrix(1.00, 0.00, -0.00, -1.00, 279.4, 636.1)">s</text><text xml:space="preserve" font-family="Futura-CondensedMedium,Futura" font-size="85.0" fill="#FEFFFF" transform="matrix(1.00, 0.00, -0.00, -1.00, 304.3, 636.1)">i</text><text xml:space="preserve" font-family="Futura-CondensedMedium,Futura" font-size="85.0" fill="#FEFFFF" transform="matrix(1.00, 0.00, -0.00, -1.00, 321.2, 636.1)">o</text><text xml:space="preserve" font-family="Futura-CondensedMedium,Futura" font-size="85.0" fill="#FEFFFF" transform="matrix(1.00, 0.00, -0.00, -1.00, 354.0, 636.1)">n</text><text xml:space="preserve" font-family="Futura-CondensedMedium,Futura" font-size="85.0" fill="#FEFFFF" transform="matrix(1.00, 0.00, -0.00, -1.00, 388.4, 636.1)">s</text><text xml:space="preserve" font-family="Futura-CondensedMedium,Futura" font-size="85.0" fill="#FEFFFF" transform="matrix(1.00, 0.00, -0.00, -1.00, 413.3, 636.1)"> </text><text xml:space="preserve" font-family="Futura-CondensedMedium,Futura" font-size="85.0" fill="#FEFFFF" transform="matrix(1.00, 0.00, -0.00, -1.00, 430.9, 636.1)">a</text><text xml:space="preserve" font-family="Futura-CondensedMedium,Futura" font-size="85.0" fill="#FEFFFF" transform="matrix(1.00, 0.00, -0.00, -1.00, 464.4, 636.1)">n</text><text xml:space="preserve" font-family="Futura-CondensedMedium,Futura" font-size="85.0" fill="#FEFFFF" transform="matrix(1.00, 0.00, -0.00, -1.00, 498.8, 636.1)">d</text><text xml:space="preserve" font-family="Futura-CondensedMedium,Futura" font-size="85.0" fill="#FEFFFF" transform="matrix(1.00, 0.00, -0.00, -1.00, 532.3, 636.1)"> </text><text xml:space="preserve" font-family="Futura-CondensedMedium,Futura" font-size="85.0" fill="#FEFFFF" transform="matrix(1.00, 0.00, -0.00, -1.00, 549.9, 636.1)">F</text><text xml:space="preserve" font-family="Futura-CondensedMedium,Futura" font-size="85.0" fill="#FEFFFF" transform="matrix(1.00, 0.00, -0.00, -1.00, 579.0, 636.1)">u</text><text xml:space="preserve" font-family="Futura-CondensedMedium,Futura" font-size="85.0" fill="#FEFFFF" transform="matrix(1.00, 0.00, -0.00, -1.00, 613.6, 636.1)">t</text><text xml:space="preserve" font-family="Futura-CondensedMedium,Futura" font-size="85.0" fill="#FEFFFF" transform="matrix(1.00, 0.00, -0.00, -1.00, 632.5, 636.1)">u</text><text xml:space="preserve" font-family="Futura-CondensedMedium,Futura" font-size="85.0" fill="#FEFFFF" transform="matrix(1.00, 0.00, -0.00, -1.00, 667.0, 636.1)">r</text><text xml:space="preserve" font-family="Futura-CondensedMedium,Futura" font-size="85.0" fill="#FEFFFF" transform="matrix(1.00, 0.00, -0.00, -1.00, 690.0, 636.1)">e</text><text xml:space="preserve" font-family="Futura-CondensedMedium,Futura" font-size="85.0" fill="#FEFFFF" transform="matrix(1.00, 0.00, -0.00, -1.00, 721.3, 636.1)"> </text><text xml:space="preserve" font-family="Futura-CondensedMedium,Futura" font-size="85.0" fill="#FEFFFF" transform="matrix(1.00, 0.00, -0.00, -1.00, 738.9, 636.1)">W</text><text xml:space="preserve" font-family="Futura-CondensedMedium,Futura" font-size="85.0" fill="#FEFFFF" transform="matrix(1.00, 0.00, -0.00, -1.00, 787.8, 636.1)">o</text><text xml:space="preserve" font-family="Futura-CondensedMedium,Futura" font-size="85.0" fill="#FEFFFF" transform="matrix(1.00, 0.00, -0.00, -1.00, 820.6, 636.1)">r</text><text xml:space="preserve" font-family="Futura-CondensedMedium,Futura" font-size="85.0" fill="#FEFFFF" transform="matrix(1.00, 0.00, -0.00, -1.00, 843.5, 636.1)">k</text><g><clipPath id="clip0x6080008ba100"><path d="M 9.0 426.1 L 88.3 426.1 L 88.3 469.3 L 9.0 469.3 Z M 9.0 426.1 "></path></clipPath><g clip-path="url(#clip0x6080008ba100)"><path d="M 107.0 -55.8 C 107.0 -55.8 101.5 -55.8 101.5 -55.8 C 101.5 -55.8 101.5 -3.8 101.5 -3.8 C 101.5 -3.8 107.0 -3.8 107.0 -3.8 " fill="none" stroke="#294242" stroke-width="1.00" transform="matrix(0.72, 0.00, 0.00, -0.72, 9.0, 426.1)"></path><path d="M 3.0 -29.8 C 3.0 -29.8 101.5 -29.8 101.5 -29.8 " fill="none" stroke="#294242" stroke-width="1.00" transform="matrix(0.72, 0.00, 0.00, -0.72, 9.0, 426.1)"></path></g></g><text xml:space="preserve" font-family="Futura-CondensedMedium,Futura" font-size="36.0" fill="#3A5252" transform="matrix(1.00, 0.00, -0.00, -1.00, 103.7, 433.9)">h</text><text xml:space="preserve" font-family="Futura-CondensedMedium,Futura" font-size="36.0" fill="#3A5252" transform="matrix(1.00, 0.00, -0.00, -1.00, 118.2, 433.9)">t</text><text xml:space="preserve" font-family="Futura-CondensedMedium,Futura" font-size="36.0" fill="#3A5252" transform="matrix(1.00, 0.00, -0.00, -1.00, 126.2, 433.9)">t</text><text xml:space="preserve" font-family="Futura-CondensedMedium,Futura" font-size="36.0" fill="#3A5252" transform="matrix(1.00, 0.00, -0.00, -1.00, 134.2, 433.9)">p</text><text xml:space="preserve" font-family="Futura-CondensedMedium,Futura" font-size="36.0" fill="#3A5252" transform="matrix(1.00, 0.00, -0.00, -1.00, 148.4, 433.9)">:</text><text xml:space="preserve" font-family="Futura-CondensedMedium,Futura" font-size="36.0" fill="#3A5252" transform="matrix(1.00, 0.00, -0.00, -1.00, 155.9, 433.9)">/</text><text xml:space="preserve" font-family="Futura-CondensedMedium,Futura" font-size="36.0" fill="#3A5252" transform="matrix(1.00, 0.00, -0.00, -1.00, 172.1, 433.9)">/</text><text xml:space="preserve" font-family="Futura-CondensedMedium,Futura" font-size="36.0" fill="#3A5252" transform="matrix(1.00, 0.00, -0.00, -1.00, 188.3, 433.9)">g</text><text xml:space="preserve" font-family="Futura-CondensedMedium,Futura" font-size="36.0" fill="#3A5252" transform="matrix(1.00, 0.00, -0.00, -1.00, 202.5, 433.9)">o</text><text xml:space="preserve" font-family="Futura-CondensedMedium,Futura" font-size="36.0" fill="#3A5252" transform="matrix(1.00, 0.00, -0.00, -1.00, 216.4, 433.9)">a</text><text xml:space="preserve" font-family="Futura-CondensedMedium,Futura" font-size="36.0" fill="#3A5252" transform="matrix(1.00, 0.00, -0.00, -1.00, 230.6, 433.9)">l</text><text xml:space="preserve" font-family="Futura-CondensedMedium,Futura" font-size="36.0" fill="#3A5252" transform="matrix(1.00, 0.00, -0.00, -1.00, 237.8, 433.9)">.</text><text xml:space="preserve" font-family="Futura-CondensedMedium,Futura" font-size="36.0" fill="#3A5252" transform="matrix(1.00, 0.00, -0.00, -1.00, 245.2, 433.9)">l</text><text xml:space="preserve" font-family="Futura-CondensedMedium,Futura" font-size="36.0" fill="#3A5252" transform="matrix(1.00, 0.00, -0.00, -1.00, 252.6, 433.9)">y</text><text xml:space="preserve" font-family="Futura-CondensedMedium,Futura" font-size="36.0" fill="#3A5252" transform="matrix(1.00, 0.00, -0.00, -1.00, 265.9, 433.9)">/</text><text xml:space="preserve" font-family="Futura-CondensedMedium,Futura" font-size="36.0" fill="#3A5252" transform="matrix(1.00, 0.00, -0.00, -1.00, 282.1, 433.9)"> </text><g><clipPath id="clip0x6080008baa00"><path d="M 102.7 427.8 L 265.9 427.8 L 265.9 432.3 L 102.7 432.3 Z M 102.7 427.8 "></path></clipPath><g clip-path="url(#clip0x6080008baa00)"><path d="M 102.7 118.9 L 264.9 118.9 " fill="none" stroke="#3A5252" stroke-width="2.46" transform="matrix(1.00, 0.00, 0.00, -1.00, 1.0, 549.0)"></path></g></g><g><clipPath id="clip0x6080008bac40"><path d="M 9.0 354.1 L 88.3 354.1 L 88.3 397.3 L 9.0 397.3 Z M 9.0 354.1 "></path></clipPath><g clip-path="url(#clip0x6080008bac40)"><path d="M 107.0 -55.8 C 107.0 -55.8 101.5 -55.8 101.5 -55.8 C 101.5 -55.8 101.5 -3.8 101.5 -3.8 C 101.5 -3.8 107.0 -3.8 107.0 -3.8 " fill="none" stroke="#294242" stroke-width="1.00" transform="matrix(0.72, 0.00, 0.00, -0.72, 9.0, 354.1)"></path><path d="M 3.0 -29.8 C 3.0 -29.8 101.5 -29.8 101.5 -29.8 " fill="none" stroke="#294242" stroke-width="1.00" transform="matrix(0.72, 0.00, 0.00, -0.72, 9.0, 354.1)"></path></g></g><text xml:space="preserve" font-family="Futura-CondensedMedium,Futura" font-size="36.0" fill="#3A5252" transform="matrix(1.00, 0.00, -0.00, -1.00, 103.7, 361.9)">h</text><text xml:space="preserve" font-family="Futura-CondensedMedium,Futura" font-size="36.0" fill="#3A5252" transform="matrix(1.00, 0.00, -0.00, -1.00, 118.2, 361.9)">t</text><text xml:space="preserve" font-family="Futura-CondensedMedium,Futura" font-size="36.0" fill="#3A5252" transform="matrix(1.00, 0.00, -0.00, -1.00, 126.2, 361.9)">t</text><text xml:space="preserve" font-family="Futura-CondensedMedium,Futura" font-size="36.0" fill="#3A5252" transform="matrix(1.00, 0.00, -0.00, -1.00, 134.2, 361.9)">p</text><text xml:space="preserve" font-family="Futura-CondensedMedium,Futura" font-size="36.0" fill="#3A5252" transform="matrix(1.00, 0.00, -0.00, -1.00, 148.4, 361.9)">:</text><text xml:space="preserve" font-family="Futura-CondensedMedium,Futura" font-size="36.0" fill="#3A5252" transform="matrix(1.00, 0.00, -0.00, -1.00, 155.9, 361.9)">/</text><text xml:space="preserve" font-family="Futura-CondensedMedium,Futura" font-size="36.0" fill="#3A5252" transform="matrix(1.00, 0.00, -0.00, -1.00, 172.1, 361.9)">/</text><text xml:space="preserve" font-family="Futura-CondensedMedium,Futura" font-size="36.0" fill="#3A5252" transform="matrix(1.00, 0.00, -0.00, -1.00, 188.3, 361.9)">g</text><text xml:space="preserve" font-family="Futura-CondensedMedium,Futura" font-size="36.0" fill="#3A5252" transform="matrix(1.00, 0.00, -0.00, -1.00, 202.5, 361.9)">i</text><text xml:space="preserve" font-family="Futura-CondensedMedium,Futura" font-size="36.0" fill="#3A5252" transform="matrix(1.00, 0.00, -0.00, -1.00, 209.7, 361.9)">t</text><text xml:space="preserve" font-family="Futura-CondensedMedium,Futura" font-size="36.0" fill="#3A5252" transform="matrix(1.00, 0.00, -0.00, -1.00, 217.7, 361.9)">h</text><text xml:space="preserve" font-family="Futura-CondensedMedium,Futura" font-size="36.0" fill="#3A5252" transform="matrix(1.00, 0.00, -0.00, -1.00, 232.2, 361.9)">u</text><text xml:space="preserve" font-family="Futura-CondensedMedium,Futura" font-size="36.0" fill="#3A5252" transform="matrix(1.00, 0.00, -0.00, -1.00, 246.9, 361.9)">b</text><text xml:space="preserve" font-family="Futura-CondensedMedium,Futura" font-size="36.0" fill="#3A5252" transform="matrix(1.00, 0.00, -0.00, -1.00, 261.1, 361.9)">.</text><text xml:space="preserve" font-family="Futura-CondensedMedium,Futura" font-size="36.0" fill="#3A5252" transform="matrix(1.00, 0.00, -0.00, -1.00, 268.5, 361.9)">c</text><text xml:space="preserve" font-family="Futura-CondensedMedium,Futura" font-size="36.0" fill="#3A5252" transform="matrix(1.00, 0.00, -0.00, -1.00, 278.8, 361.9)">o</text><text xml:space="preserve" font-family="Futura-CondensedMedium,Futura" font-size="36.0" fill="#3A5252" transform="matrix(1.00, 0.00, -0.00, -1.00, 292.7, 361.9)">m</text><text xml:space="preserve" font-family="Futura-CondensedMedium,Futura" font-size="36.0" fill="#3A5252" transform="matrix(1.00, 0.00, -0.00, -1.00, 314.6, 361.9)">/</text><text xml:space="preserve" font-family="Futura-CondensedMedium,Futura" font-size="36.0" fill="#3A5252" transform="matrix(1.00, 0.00, -0.00, -1.00, 330.9, 361.9)">d</text><text xml:space="preserve" font-family="Futura-CondensedMedium,Futura" font-size="36.0" fill="#3A5252" transform="matrix(1.00, 0.00, -0.00, -1.00, 345.0, 361.9)">a</text><text xml:space="preserve" font-family="Futura-CondensedMedium,Futura" font-size="36.0" fill="#3A5252" transform="matrix(1.00, 0.00, -0.00, -1.00, 359.2, 361.9)">n</text><text xml:space="preserve" font-family="Futura-CondensedMedium,Futura" font-size="36.0" fill="#3A5252" transform="matrix(1.00, 0.00, -0.00, -1.00, 373.8, 361.9)">i</text><text xml:space="preserve" font-family="Futura-CondensedMedium,Futura" font-size="36.0" fill="#3A5252" transform="matrix(1.00, 0.00, -0.00, -1.00, 380.9, 361.9)">e</text><text xml:space="preserve" font-family="Futura-CondensedMedium,Futura" font-size="36.0" fill="#3A5252" transform="matrix(1.00, 0.00, -0.00, -1.00, 394.2, 361.9)">l</text><text xml:space="preserve" font-family="Futura-CondensedMedium,Futura" font-size="36.0" fill="#3A5252" transform="matrix(1.00, 0.00, -0.00, -1.00, 401.4, 361.9)">b</text><text xml:space="preserve" font-family="Futura-CondensedMedium,Futura" font-size="36.0" fill="#3A5252" transform="matrix(1.00, 0.00, -0.00, -1.00, 415.4, 361.9)">w</text><text xml:space="preserve" font-family="Futura-CondensedMedium,Futura" font-size="36.0" fill="#3A5252" transform="matrix(1.00, 0.00, -0.00, -1.00, 433.5, 361.9)">a</text><text xml:space="preserve" font-family="Futura-CondensedMedium,Futura" font-size="36.0" fill="#3A5252" transform="matrix(1.00, 0.00, -0.00, -1.00, 447.7, 361.9)">t</text><text xml:space="preserve" font-family="Futura-CondensedMedium,Futura" font-size="36.0" fill="#3A5252" transform="matrix(1.00, 0.00, -0.00, -1.00, 455.7, 361.9)">s</text><text xml:space="preserve" font-family="Futura-CondensedMedium,Futura" font-size="36.0" fill="#3A5252" transform="matrix(1.00, 0.00, -0.00, -1.00, 466.3, 361.9)">o</text><text xml:space="preserve" font-family="Futura-CondensedMedium,Futura" font-size="36.0" fill="#3A5252" transform="matrix(1.00, 0.00, -0.00, -1.00, 480.1, 361.9)">n</text><text xml:space="preserve" font-family="Futura-CondensedMedium,Futura" font-size="36.0" fill="#3A5252" transform="matrix(1.00, 0.00, -0.00, -1.00, 494.8, 361.9)"> </text><g><clipPath id="clip0x6080008bbb40"><path d="M 102.7 355.8 L 494.8 355.8 L 494.8 360.3 L 102.7 360.3 Z M 102.7 355.8 "></path></clipPath><g clip-path="url(#clip0x6080008bbb40)"><path d="M 102.7 190.9 L 493.8 190.9 " fill="none" stroke="#3A5252" stroke-width="2.46" transform="matrix(1.00, 0.00, 0.00, -1.00, 1.0, 549.0)"></path></g></g><g><clipPath id="clip0x6080008bbd80"><path d="M 9.0 282.1 L 88.3 282.1 L 88.3 325.3 L 9.0 325.3 Z M 9.0 282.1 "></path></clipPath><g clip-path="url(#clip0x6080008bbd80)"><path d="M 107.0 -55.8 C 107.0 -55.8 101.5 -55.8 101.5 -55.8 C 101.5 -55.8 101.5 -3.8 101.5 -3.8 C 101.5 -3.8 107.0 -3.8 107.0 -3.8 " fill="none" stroke="#294242" stroke-width="1.00" transform="matrix(0.72, 0.00, 0.00, -0.72, 9.0, 282.1)"></path><path d="M 3.0 -29.8 C 3.0 -29.8 101.5 -29.8 101.5 -29.8 " fill="none" stroke="#294242" stroke-width="1.00" transform="matrix(0.72, 0.00, 0.00, -0.72, 9.0, 282.1)"></path></g></g><text xml:space="preserve" font-family="Futura-CondensedMedium,Futura" font-size="36.0" fill="#3A5252" transform="matrix(1.00, 0.00, -0.00, -1.00, 103.7, 289.9)">V</text><text xml:space="preserve" font-family="Futura-CondensedMedium,Futura" font-size="36.0" fill="#3A5252" transform="matrix(1.00, 0.00, -0.00, -1.00, 117.5, 289.9)">i</text><text xml:space="preserve" font-family="Futura-CondensedMedium,Futura" font-size="36.0" fill="#3A5252" transform="matrix(1.00, 0.00, -0.00, -1.00, 124.7, 289.9)">s</text><text xml:space="preserve" font-family="Futura-CondensedMedium,Futura" font-size="36.0" fill="#3A5252" transform="matrix(1.00, 0.00, -0.00, -1.00, 135.3, 289.9)">u</text><text xml:space="preserve" font-family="Futura-CondensedMedium,Futura" font-size="36.0" fill="#3A5252" transform="matrix(1.00, 0.00, -0.00, -1.00, 149.9, 289.9)">a</text><text xml:space="preserve" font-family="Futura-CondensedMedium,Futura" font-size="36.0" fill="#3A5252" transform="matrix(1.00, 0.00, -0.00, -1.00, 164.1, 289.9)">l</text><text xml:space="preserve" font-family="Futura-CondensedMedium,Futura" font-size="36.0" fill="#3A5252" transform="matrix(1.00, 0.00, -0.00, -1.00, 171.3, 289.9)"> </text><text xml:space="preserve" font-family="Futura-CondensedMedium,Futura" font-size="36.0" fill="#3A5252" transform="matrix(1.00, 0.00, -0.00, -1.00, 178.7, 289.9)">c</text><text xml:space="preserve" font-family="Futura-CondensedMedium,Futura" font-size="36.0" fill="#3A5252" transform="matrix(1.00, 0.00, -0.00, -1.00, 189.0, 289.9)">o</text><text xml:space="preserve" font-family="Futura-CondensedMedium,Futura" font-size="36.0" fill="#3A5252" transform="matrix(1.00, 0.00, -0.00, -1.00, 202.9, 289.9)">n</text><text xml:space="preserve" font-family="Futura-CondensedMedium,Futura" font-size="36.0" fill="#3A5252" transform="matrix(1.00, 0.00, -0.00, -1.00, 217.4, 289.9)">s</text><text xml:space="preserve" font-family="Futura-CondensedMedium,Futura" font-size="36.0" fill="#3A5252" transform="matrix(1.00, 0.00, -0.00, -1.00, 228.0, 289.9)">i</text><text xml:space="preserve" font-family="Futura-CondensedMedium,Futura" font-size="36.0" fill="#3A5252" transform="matrix(1.00, 0.00, -0.00, -1.00, 235.1, 289.9)">s</text><text xml:space="preserve" font-family="Futura-CondensedMedium,Futura" font-size="36.0" fill="#3A5252" transform="matrix(1.00, 0.00, -0.00, -1.00, 245.9, 289.9)">t</text><text xml:space="preserve" font-family="Futura-CondensedMedium,Futura" font-size="36.0" fill="#3A5252" transform="matrix(1.00, 0.00, -0.00, -1.00, 253.9, 289.9)">e</text><text xml:space="preserve" font-family="Futura-CondensedMedium,Futura" font-size="36.0" fill="#3A5252" transform="matrix(1.00, 0.00, -0.00, -1.00, 267.1, 289.9)">n</text><text xml:space="preserve" font-family="Futura-CondensedMedium,Futura" font-size="36.0" fill="#3A5252" transform="matrix(1.00, 0.00, -0.00, -1.00, 281.7, 289.9)">c</text><text xml:space="preserve" font-family="Futura-CondensedMedium,Futura" font-size="36.0" fill="#3A5252" transform="matrix(1.00, 0.00, -0.00, -1.00, 292.0, 289.9)">y</text><text xml:space="preserve" font-family="Futura-CondensedMedium,Futura" font-size="36.0" fill="#3A5252" transform="matrix(1.00, 0.00, -0.00, -1.00, 305.2, 289.9)"> </text><g><clipPath id="clip0x6080008bc7a0"><path d="M 9.0 210.1 L 88.3 210.1 L 88.3 253.3 L 9.0 253.3 Z M 9.0 210.1 "></path></clipPath><g clip-path="url(#clip0x6080008bc7a0)"><path d="M 107.0 -55.8 C 107.0 -55.8 101.5 -55.8 101.5 -55.8 C 101.5 -55.8 101.5 -3.8 101.5 -3.8 C 101.5 -3.8 107.0 -3.8 107.0 -3.8 " fill="none" stroke="#294242" stroke-width="1.00" transform="matrix(0.72, 0.00, 0.00, -0.72, 9.0, 210.1)"></path><path d="M 3.0 -29.8 C 3.0 -29.8 101.5 -29.8 101.5 -29.8 " fill="none" stroke="#294242" stroke-width="1.00" transform="matrix(0.72, 0.00, 0.00, -0.72, 9.0, 210.1)"></path></g></g><text xml:space="preserve" font-family="Futura-CondensedMedium,Futura" font-size="36.0" fill="#3A5252" transform="matrix(1.00, 0.00, -0.00, -1.00, 103.7, 217.9)">I</text><text xml:space="preserve" font-family="Futura-CondensedMedium,Futura" font-size="36.0" fill="#3A5252" transform="matrix(1.00, 0.00, -0.00, -1.00, 111.5, 217.9)">n</text><text xml:space="preserve" font-family="Futura-CondensedMedium,Futura" font-size="36.0" fill="#3A5252" transform="matrix(1.00, 0.00, -0.00, -1.00, 126.1, 217.9)">s</text><text xml:space="preserve" font-family="Futura-CondensedMedium,Futura" font-size="36.0" fill="#3A5252" transform="matrix(1.00, 0.00, -0.00, -1.00, 136.8, 217.9)">t</text><text xml:space="preserve" font-family="Futura-CondensedMedium,Futura" font-size="36.0" fill="#3A5252" transform="matrix(1.00, 0.00, -0.00, -1.00, 144.8, 217.9)">r</text><text xml:space="preserve" font-family="Futura-CondensedMedium,Futura" font-size="36.0" fill="#3A5252" transform="matrix(1.00, 0.00, -0.00, -1.00, 154.5, 217.9)">u</text><text xml:space="preserve" font-family="Futura-CondensedMedium,Futura" font-size="36.0" fill="#3A5252" transform="matrix(1.00, 0.00, -0.00, -1.00, 169.1, 217.9)">c</text><text xml:space="preserve" font-family="Futura-CondensedMedium,Futura" font-size="36.0" fill="#3A5252" transform="matrix(1.00, 0.00, -0.00, -1.00, 179.4, 217.9)">t</text><text xml:space="preserve" font-family="Futura-CondensedMedium,Futura" font-size="36.0" fill="#3A5252" transform="matrix(1.00, 0.00, -0.00, -1.00, 187.4, 217.9)">i</text><text xml:space="preserve" font-family="Futura-CondensedMedium,Futura" font-size="36.0" fill="#3A5252" transform="matrix(1.00, 0.00, -0.00, -1.00, 194.6, 217.9)">o</text><text xml:space="preserve" font-family="Futura-CondensedMedium,Futura" font-size="36.0" fill="#3A5252" transform="matrix(1.00, 0.00, -0.00, -1.00, 208.4, 217.9)">n</text><text xml:space="preserve" font-family="Futura-CondensedMedium,Futura" font-size="36.0" fill="#3A5252" transform="matrix(1.00, 0.00, -0.00, -1.00, 223.0, 217.9)">s</text><text xml:space="preserve" font-family="Futura-CondensedMedium,Futura" font-size="36.0" fill="#3A5252" transform="matrix(1.00, 0.00, -0.00, -1.00, 233.6, 217.9)"> </text><text xml:space="preserve" font-family="Futura-CondensedMedium,Futura" font-size="36.0" fill="#3A5252" transform="matrix(1.00, 0.00, -0.00, -1.00, 241.0, 217.9)">-</text><text xml:space="preserve" font-family="Futura-CondensedMedium,Futura" font-size="36.0" fill="#3A5252" transform="matrix(1.00, 0.00, -0.00, -1.00, 247.4, 217.9)"> </text><text xml:space="preserve" font-family="Futura-CondensedMedium,Futura" font-size="36.0" fill="#3A5252" transform="matrix(1.00, 0.00, -0.00, -1.00, 254.9, 217.9)">w</text><text xml:space="preserve" font-family="Futura-CondensedMedium,Futura" font-size="36.0" fill="#3A5252" transform="matrix(1.00, 0.00, -0.00, -1.00, 272.9, 217.9)">e</text><text xml:space="preserve" font-family="Futura-CondensedMedium,Futura" font-size="36.0" fill="#3A5252" transform="matrix(1.00, 0.00, -0.00, -1.00, 286.2, 217.9)">b</text><text xml:space="preserve" font-family="Futura-CondensedMedium,Futura" font-size="36.0" fill="#3A5252" transform="matrix(1.00, 0.00, -0.00, -1.00, 300.4, 217.9)">s</text><text xml:space="preserve" font-family="Futura-CondensedMedium,Futura" font-size="36.0" fill="#3A5252" transform="matrix(1.00, 0.00, -0.00, -1.00, 311.0, 217.9)">i</text><text xml:space="preserve" font-family="Futura-CondensedMedium,Futura" font-size="36.0" fill="#3A5252" transform="matrix(1.00, 0.00, -0.00, -1.00, 318.1, 217.9)">t</text><text xml:space="preserve" font-family="Futura-CondensedMedium,Futura" font-size="36.0" fill="#3A5252" transform="matrix(1.00, 0.00, -0.00, -1.00, 326.1, 217.9)">e</text><text xml:space="preserve" font-family="Futura-CondensedMedium,Futura" font-size="36.0" fill="#3A5252" transform="matrix(1.00, 0.00, -0.00, -1.00, 339.3, 217.9)"> </text><text xml:space="preserve" font-family="Futura-CondensedMedium,Futura" font-size="36.0" fill="#3A5252" transform="matrix(1.00, 0.00, -0.00, -1.00, 346.8, 217.9)">a</text><text xml:space="preserve" font-family="Futura-CondensedMedium,Futura" font-size="36.0" fill="#3A5252" transform="matrix(1.00, 0.00, -0.00, -1.00, 361.0, 217.9)">n</text><text xml:space="preserve" font-family="Futura-CondensedMedium,Futura" font-size="36.0" fill="#3A5252" transform="matrix(1.00, 0.00, -0.00, -1.00, 375.5, 217.9)">d</text><text xml:space="preserve" font-family="Futura-CondensedMedium,Futura" font-size="36.0" fill="#3A5252" transform="matrix(1.00, 0.00, -0.00, -1.00, 389.7, 217.9)"> </text><text xml:space="preserve" font-family="Futura-CondensedMedium,Futura" font-size="36.0" fill="#3A5252" transform="matrix(1.00, 0.00, -0.00, -1.00, 397.2, 217.9)">e</text><text xml:space="preserve" font-family="Futura-CondensedMedium,Futura" font-size="36.0" fill="#3A5252" transform="matrix(1.00, 0.00, -0.00, -1.00, 410.4, 217.9)">m</text><text xml:space="preserve" font-family="Futura-CondensedMedium,Futura" font-size="36.0" fill="#3A5252" transform="matrix(1.00, 0.00, -0.00, -1.00, 432.4, 217.9)">a</text><text xml:space="preserve" font-family="Futura-CondensedMedium,Futura" font-size="36.0" fill="#3A5252" transform="matrix(1.00, 0.00, -0.00, -1.00, 446.6, 217.9)">i</text><text xml:space="preserve" font-family="Futura-CondensedMedium,Futura" font-size="36.0" fill="#3A5252" transform="matrix(1.00, 0.00, -0.00, -1.00, 453.8, 217.9)">l</text><text xml:space="preserve" font-family="Futura-CondensedMedium,Futura" font-size="36.0" fill="#3A5252" transform="matrix(1.00, 0.00, -0.00, -1.00, 460.9, 217.9)"> </text><g><clipPath id="clip0x6080008bd700"><path d="M 9.0 138.1 L 88.3 138.1 L 88.3 181.3 L 9.0 181.3 Z M 9.0 138.1 "></path></clipPath><g clip-path="url(#clip0x6080008bd700)"><path d="M 107.0 -55.8 C 107.0 -55.8 101.5 -55.8 101.5 -55.8 C 101.5 -55.8 101.5 -3.8 101.5 -3.8 C 101.5 -3.8 107.0 -3.8 107.0 -3.8 " fill="none" stroke="#294242" stroke-width="1.00" transform="matrix(0.72, 0.00, 0.00, -0.72, 9.0, 138.1)"></path><path d="M 3.0 -29.8 C 3.0 -29.8 101.5 -29.8 101.5 -29.8 " fill="none" stroke="#294242" stroke-width="1.00" transform="matrix(0.72, 0.00, 0.00, -0.72, 9.0, 138.1)"></path></g></g><text xml:space="preserve" font-family="Futura-CondensedMedium,Futura" font-size="36.0" fill="#3A5252" transform="matrix(1.00, 0.00, -0.00, -1.00, 103.7, 145.9)">R</text><text xml:space="preserve" font-family="Futura-CondensedMedium,Futura" font-size="36.0" fill="#3A5252" transform="matrix(1.00, 0.00, -0.00, -1.00, 118.3, 145.9)">e</text><text xml:space="preserve" font-family="Futura-CondensedMedium,Futura" font-size="36.0" fill="#3A5252" transform="matrix(1.00, 0.00, -0.00, -1.00, 131.6, 145.9)">s</text><text xml:space="preserve" font-family="Futura-CondensedMedium,Futura" font-size="36.0" fill="#3A5252" transform="matrix(1.00, 0.00, -0.00, -1.00, 142.2, 145.9)">p</text><text xml:space="preserve" font-family="Futura-CondensedMedium,Futura" font-size="36.0" fill="#3A5252" transform="matrix(1.00, 0.00, -0.00, -1.00, 156.4, 145.9)">o</text><text xml:space="preserve" font-family="Futura-CondensedMedium,Futura" font-size="36.0" fill="#3A5252" transform="matrix(1.00, 0.00, -0.00, -1.00, 170.2, 145.9)">n</text><text xml:space="preserve" font-family="Futura-CondensedMedium,Futura" font-size="36.0" fill="#3A5252" transform="matrix(1.00, 0.00, -0.00, -1.00, 184.8, 145.9)">s</text><text xml:space="preserve" font-family="Futura-CondensedMedium,Futura" font-size="36.0" fill="#3A5252" transform="matrix(1.00, 0.00, -0.00, -1.00, 195.4, 145.9)">e</text><text xml:space="preserve" font-family="Futura-CondensedMedium,Futura" font-size="36.0" fill="#3A5252" transform="matrix(1.00, 0.00, -0.00, -1.00, 208.6, 145.9)"> </text><text xml:space="preserve" font-family="Futura-CondensedMedium,Futura" font-size="36.0" fill="#3A5252" transform="matrix(1.00, 0.00, -0.00, -1.00, 216.1, 145.9)">p</text><text xml:space="preserve" font-family="Futura-CondensedMedium,Futura" font-size="36.0" fill="#3A5252" transform="matrix(1.00, 0.00, -0.00, -1.00, 230.3, 145.9)">a</text><text xml:space="preserve" font-family="Futura-CondensedMedium,Futura" font-size="36.0" fill="#3A5252" transform="matrix(1.00, 0.00, -0.00, -1.00, 244.5, 145.9)">r</text><text xml:space="preserve" font-family="Futura-CondensedMedium,Futura" font-size="36.0" fill="#3A5252" transform="matrix(1.00, 0.00, -0.00, -1.00, 254.6, 145.9)">s</text><text xml:space="preserve" font-family="Futura-CondensedMedium,Futura" font-size="36.0" fill="#3A5252" transform="matrix(1.00, 0.00, -0.00, -1.00, 265.2, 145.9)">i</text><text xml:space="preserve" font-family="Futura-CondensedMedium,Futura" font-size="36.0" fill="#3A5252" transform="matrix(1.00, 0.00, -0.00, -1.00, 272.3, 145.9)">n</text><text xml:space="preserve" font-family="Futura-CondensedMedium,Futura" font-size="36.0" fill="#3A5252" transform="matrix(1.00, 0.00, -0.00, -1.00, 286.9, 145.9)">g</text><text xml:space="preserve" font-family="Futura-CondensedMedium,Futura" font-size="36.0" fill="#3A5252" transform="matrix(1.00, 0.00, -0.00, -1.00, 301.1, 145.9)"> </text><text xml:space="preserve" font-family="Futura-CondensedMedium,Futura" font-size="36.0" fill="#3A5252" transform="matrix(1.00, 0.00, -0.00, -1.00, 308.6, 145.9)">r</text><text xml:space="preserve" font-family="Futura-CondensedMedium,Futura" font-size="36.0" fill="#3A5252" transform="matrix(1.00, 0.00, -0.00, -1.00, 318.3, 145.9)">o</text><text xml:space="preserve" font-family="Futura-CondensedMedium,Futura" font-size="36.0" fill="#3A5252" transform="matrix(1.00, 0.00, -0.00, -1.00, 332.2, 145.9)">b</text><text xml:space="preserve" font-family="Futura-CondensedMedium,Futura" font-size="36.0" fill="#3A5252" transform="matrix(1.00, 0.00, -0.00, -1.00, 346.3, 145.9)">u</text><text xml:space="preserve" font-family="Futura-CondensedMedium,Futura" font-size="36.0" fill="#3A5252" transform="matrix(1.00, 0.00, -0.00, -1.00, 361.0, 145.9)">s</text><text xml:space="preserve" font-family="Futura-CondensedMedium,Futura" font-size="36.0" fill="#3A5252" transform="matrix(1.00, 0.00, -0.00, -1.00, 371.7, 145.9)">t</text><text xml:space="preserve" font-family="Futura-CondensedMedium,Futura" font-size="36.0" fill="#3A5252" transform="matrix(1.00, 0.00, -0.00, -1.00, 379.7, 145.9)">n</text><text xml:space="preserve" font-family="Futura-CondensedMedium,Futura" font-size="36.0" fill="#3A5252" transform="matrix(1.00, 0.00, -0.00, -1.00, 394.3, 145.9)">e</text><text xml:space="preserve" font-family="Futura-CondensedMedium,Futura" font-size="36.0" fill="#3A5252" transform="matrix(1.00, 0.00, -0.00, -1.00, 407.6, 145.9)">s</text><text xml:space="preserve" font-family="Futura-CondensedMedium,Futura" font-size="36.0" fill="#3A5252" transform="matrix(1.00, 0.00, -0.00, -1.00, 418.1, 145.9)">s</text><text xml:space="preserve" font-family="Futura-CondensedMedium,Futura" font-size="36.0" fill="#3A5252" transform="matrix(1.00, 0.00, -0.00, -1.00, 428.7, 145.9)"> </text><text xml:space="preserve" font-family="Futura-CondensedMedium,Futura" font-size="36.0" fill="#3A5252" transform="matrix(1.00, 0.00, -0.00, -1.00, 436.2, 145.9)">a</text><text xml:space="preserve" font-family="Futura-CondensedMedium,Futura" font-size="36.0" fill="#3A5252" transform="matrix(1.00, 0.00, -0.00, -1.00, 450.4, 145.9)">n</text><text xml:space="preserve" font-family="Futura-CondensedMedium,Futura" font-size="36.0" fill="#3A5252" transform="matrix(1.00, 0.00, -0.00, -1.00, 464.9, 145.9)">d</text><text xml:space="preserve" font-family="Futura-CondensedMedium,Futura" font-size="36.0" fill="#3A5252" transform="matrix(1.00, 0.00, -0.00, -1.00, 479.1, 145.9)"> </text><text xml:space="preserve" font-family="Futura-CondensedMedium,Futura" font-size="36.0" fill="#3A5252" transform="matrix(1.00, 0.00, -0.00, -1.00, 486.6, 145.9)">e</text><text xml:space="preserve" font-family="Futura-CondensedMedium,Futura" font-size="36.0" fill="#3A5252" transform="matrix(1.00, 0.00, -0.00, -1.00, 499.8, 145.9)">r</text><text xml:space="preserve" font-family="Futura-CondensedMedium,Futura" font-size="36.0" fill="#3A5252" transform="matrix(1.00, 0.00, -0.00, -1.00, 509.5, 145.9)">r</text><text xml:space="preserve" font-family="Futura-CondensedMedium,Futura" font-size="36.0" fill="#3A5252" transform="matrix(1.00, 0.00, -0.00, -1.00, 519.2, 145.9)">o</text><text xml:space="preserve" font-family="Futura-CondensedMedium,Futura" font-size="36.0" fill="#3A5252" transform="matrix(1.00, 0.00, -0.00, -1.00, 533.1, 145.9)">r</text><text xml:space="preserve" font-family="Futura-CondensedMedium,Futura" font-size="36.0" fill="#3A5252" transform="matrix(1.00, 0.00, -0.00, -1.00, 542.7, 145.9)"> </text><text xml:space="preserve" font-family="Futura-CondensedMedium,Futura" font-size="36.0" fill="#3A5252" transform="matrix(1.00, 0.00, -0.00, -1.00, 550.2, 145.9)">r</text><text xml:space="preserve" font-family="Futura-CondensedMedium,Futura" font-size="36.0" fill="#3A5252" transform="matrix(1.00, 0.00, -0.00, -1.00, 559.9, 145.9)">e</text><text xml:space="preserve" font-family="Futura-CondensedMedium,Futura" font-size="36.0" fill="#3A5252" transform="matrix(1.00, 0.00, -0.00, -1.00, 573.2, 145.9)">p</text><text xml:space="preserve" font-family="Futura-CondensedMedium,Futura" font-size="36.0" fill="#3A5252" transform="matrix(1.00, 0.00, -0.00, -1.00, 587.4, 145.9)">o</text><text xml:space="preserve" font-family="Futura-CondensedMedium,Futura" font-size="36.0" fill="#3A5252" transform="matrix(1.00, 0.00, -0.00, -1.00, 601.2, 145.9)">r</text><text xml:space="preserve" font-family="Futura-CondensedMedium,Futura" font-size="36.0" fill="#3A5252" transform="matrix(1.00, 0.00, -0.00, -1.00, 611.6, 145.9)">t</text><text xml:space="preserve" font-family="Futura-CondensedMedium,Futura" font-size="36.0" fill="#3A5252" transform="matrix(1.00, 0.00, -0.00, -1.00, 619.6, 145.9)">i</text><text xml:space="preserve" font-family="Futura-CondensedMedium,Futura" font-size="36.0" fill="#3A5252" transform="matrix(1.00, 0.00, -0.00, -1.00, 626.8, 145.9)">n</text><text xml:space="preserve" font-family="Futura-CondensedMedium,Futura" font-size="36.0" fill="#3A5252" transform="matrix(1.00, 0.00, -0.00, -1.00, 641.3, 145.9)">g</text></g></svg>